<svg width="42" height="42" viewBox="0 0 42 42" fill="none" xmlns="http://www.w3.org/2000/svg">
<g clip-path="url(#clip0_3097_1993)">
<path d="M21 42C32.598 42 42 32.598 42 21C42 9.40202 32.598 0 21 0C9.40202 0 0 9.40202 0 21C0 32.598 9.40202 42 21 42Z" fill="url(#paint0_linear_3097_1993)"/>
<path d="M13.6172 20.1067H28.3828C29.5148 20.1067 30.4336 21.0254 30.4336 22.1575V22.1936C30.4336 27.3804 26.2229 31.5911 21.0361 31.5911H21C15.7935 31.5911 11.5664 27.364 11.5664 22.1575C11.5664 21.0254 12.4852 20.1067 13.6172 20.1067Z" fill="url(#paint1_radial_3097_1993)"/>
<path d="M26.8296 29.5936C25.2333 30.8446 23.2219 31.5911 21.0357 31.5911H20.9996C18.8029 31.5911 16.7824 30.8405 15.1787 29.5813C16.4953 27.7979 18.6125 26.6413 20.9996 26.6413C23.3868 26.6413 25.5138 27.8029 26.8296 29.5936Z" fill="url(#paint2_linear_3097_1993)"/>
<path d="M29.4082 20.3815V20.927C29.4082 22.2854 28.3065 23.3879 26.9473 23.3879H15.0527C13.6935 23.3879 12.5918 22.2854 12.5918 20.927V20.3815C12.8937 20.2068 13.2439 20.1067 13.6172 20.1067H28.3828C28.7561 20.1067 29.1063 20.2068 29.4082 20.3815Z" fill="url(#paint3_linear_3097_1993)"/>
<path d="M13.6708 18.3742C16.4403 18.3742 18.6854 16.1291 18.6854 13.3596C18.6854 10.5901 16.4403 8.34503 13.6708 8.34503C10.9013 8.34503 8.65625 10.5901 8.65625 13.3596C8.65625 16.1291 10.9013 18.3742 13.6708 18.3742Z" fill="url(#paint4_radial_3097_1993)"/>
<path d="M13.6707 16.6162C15.4693 16.6162 16.9273 15.1582 16.9273 13.3596C16.9273 11.561 15.4693 10.103 13.6707 10.103C11.8721 10.103 10.4141 11.561 10.4141 13.3596C10.4141 15.1582 11.8721 16.6162 13.6707 16.6162Z" fill="url(#paint5_radial_3097_1993)"/>
<path d="M15.2474 13.4621C16.1752 13.4621 16.9274 12.71 16.9274 11.7821C16.9274 10.8543 16.1752 10.1021 15.2474 10.1021C14.3195 10.1021 13.5674 10.8543 13.5674 11.7821C13.5674 12.71 14.3195 13.4621 15.2474 13.4621Z" fill="white"/>
<path d="M30.4367 17.4357C30.1931 17.4357 29.947 17.3742 29.7206 17.2438L24.6502 14.3194C24.2056 14.0634 23.9316 13.5893 23.9316 13.0758C23.9316 12.5623 24.2056 12.0889 24.6502 11.8322L29.7206 8.90778C30.4072 8.51157 31.2857 8.74782 31.6811 9.43442C32.0773 10.121 31.8419 10.9988 31.1545 11.395L28.2407 13.0758L31.1545 14.7566C31.8411 15.1528 32.0773 16.0305 31.6811 16.7172C31.4154 17.1782 30.9322 17.4357 30.4359 17.4357H30.4367Z" fill="url(#paint6_linear_3097_1993)"/>
<path d="M8.14467 6.65355C8.30873 7.5846 9.36693 8.05218 10.1635 7.54277C10.8903 7.07765 11.8246 6.62402 12.8959 6.43535C13.9672 6.24667 15.0008 6.35249 15.8425 6.54117C16.7653 6.74789 17.5996 5.94644 17.4355 5.01539C17.3601 4.58964 17.0836 4.2246 16.6907 4.04332C15.9163 3.6873 14.4537 3.24515 12.398 3.60691C10.3423 3.96949 9.1192 4.88578 8.51299 5.4846C8.20537 5.78894 8.07002 6.22617 8.14549 6.65273L8.14467 6.65355Z" fill="url(#paint7_linear_3097_1993)"/>
<path d="M33.8546 6.65355C33.6905 7.5846 32.6323 8.05218 31.8358 7.54277C31.109 7.07765 30.1747 6.62402 29.1033 6.43535C28.032 6.24667 26.9984 6.35249 26.1568 6.54117C25.2339 6.74789 24.3997 5.94644 24.5637 5.01539C24.6392 4.58964 24.9156 4.2246 25.3086 4.04332C26.0829 3.6873 27.5456 3.24515 29.6013 3.60691C31.657 3.96949 32.8801 4.88578 33.4863 5.4846C33.7939 5.78894 33.9292 6.22617 33.8538 6.65273L33.8546 6.65355Z" fill="url(#paint8_linear_3097_1993)"/>
</g>
<defs>
<linearGradient id="paint0_linear_3097_1993" x1="6.1507" y1="6.1507" x2="35.8493" y2="35.8493" gradientUnits="userSpaceOnUse">
<stop offset="0.1" stop-color="#FFF1AB"/>
<stop offset="0.4" stop-color="#FFDA24"/>
<stop offset="0.51" stop-color="#FFC81D"/>
<stop offset="0.74" stop-color="#FF9A0C"/>
<stop offset="0.9" stop-color="#FF7700"/>
</linearGradient>
<radialGradient id="paint1_radial_3097_1993" cx="0" cy="0" r="1" gradientUnits="userSpaceOnUse" gradientTransform="translate(21 25.8489) scale(7.80938)">
<stop stop-color="#614444"/>
<stop offset="0.38" stop-color="#583C3C"/>
<stop offset="1" stop-color="#402828"/>
</radialGradient>
<linearGradient id="paint2_linear_3097_1993" x1="21.0038" y1="31.5911" x2="21.0038" y2="26.6413" gradientUnits="userSpaceOnUse">
<stop stop-color="#FF6A00"/>
<stop offset="0.99" stop-color="#FFA227"/>
</linearGradient>
<linearGradient id="paint3_linear_3097_1993" x1="21" y1="23.3879" x2="21" y2="20.1067" gradientUnits="userSpaceOnUse">
<stop offset="0.65" stop-color="white"/>
<stop offset="0.75" stop-color="#F6F6F6"/>
<stop offset="0.9" stop-color="#DDDDDD"/>
<stop offset="1" stop-color="#CCCCCC"/>
</linearGradient>
<radialGradient id="paint4_radial_3097_1993" cx="0" cy="0" r="1" gradientUnits="userSpaceOnUse" gradientTransform="translate(13.6708 13.3596) scale(5.01457)">
<stop offset="0.75" stop-color="white"/>
<stop offset="0.82" stop-color="#FAFAFA"/>
<stop offset="0.89" stop-color="#EEEEEE"/>
<stop offset="0.96" stop-color="#D9D9D9"/>
<stop offset="1" stop-color="#CCCCCC"/>
</radialGradient>
<radialGradient id="paint5_radial_3097_1993" cx="0" cy="0" r="1" gradientUnits="userSpaceOnUse" gradientTransform="translate(13.6707 13.3596) scale(3.25664)">
<stop stop-color="#705454"/>
<stop offset="0.27" stop-color="#674C4C"/>
<stop offset="0.71" stop-color="#4E3838"/>
<stop offset="1" stop-color="#3B2828"/>
</radialGradient>
<linearGradient id="paint6_linear_3097_1993" x1="27.9028" y1="17.4357" x2="27.9028" y2="8.71582" gradientUnits="userSpaceOnUse">
<stop stop-color="#3B2828"/>
<stop offset="1" stop-color="#705454"/>
</linearGradient>
<linearGradient id="paint7_linear_3097_1993" x1="12.7901" y1="7.75195" x2="12.7901" y2="3.47238" gradientUnits="userSpaceOnUse">
<stop stop-color="#3B2828"/>
<stop offset="1" stop-color="#705454"/>
</linearGradient>
<linearGradient id="paint8_linear_3097_1993" x1="29.2092" y1="7.75195" x2="29.2092" y2="3.47238" gradientUnits="userSpaceOnUse">
<stop stop-color="#3B2828"/>
<stop offset="1" stop-color="#705454"/>
</linearGradient>
<clipPath id="clip0_3097_1993">
<rect width="42" height="42" fill="white"/>
</clipPath>
</defs>
</svg>
