<svg width="42" height="42" viewBox="0 0 42 42" fill="none" xmlns="http://www.w3.org/2000/svg">
<path d="M20.1901 34.8398C20.1901 34.8398 22.6015 25.5065 30.9717 23.6876L17.6984 23.6349C17.6984 23.6349 13.7082 29.9729 15.4538 34.7987C15.9341 36.1264 17.2988 37.0002 18.6682 36.6859C19.3896 36.5202 20.0367 36.0263 20.1901 34.8398Z" fill="url(#paint0_linear_3097_2010)"/>
<g opacity="0.3">
<path d="M30.1771 23.8883C30.436 23.8141 30.7004 23.7466 30.9717 23.6876L30.6537 23.6864C30.4921 23.7509 30.3334 23.8182 30.1771 23.8883Z" fill="url(#paint1_linear_3097_2010)"/>
<path d="M15.4542 34.7986C15.9345 36.1264 17.2992 37.0001 18.6686 36.6858C19.0349 36.6017 19.3812 36.4315 19.6543 36.1305C18.5288 36.0859 17.5055 35.3031 17.1034 34.1916C15.6836 30.2664 18.0581 25.3417 18.9939 23.6399L17.6988 23.6348C17.6988 23.6349 13.7086 29.9728 15.4542 34.7986Z" fill="url(#paint2_linear_3097_2010)"/>
</g>
<path d="M6.91005 21.0213H6.94794C6.20104 21.0382 5.30425 21.3487 4.57345 21.8399C2.66149 23.1251 3.42974 26.2209 5.63439 26.6321C5.80939 26.6647 5.98745 26.6801 6.16534 26.6801C6.16551 26.6801 19.8252 26.6801 19.8252 26.6801C22.6181 26.6801 25.3495 25.9826 27.8646 24.7614C28.7648 24.3243 29.8024 23.9416 30.9717 23.6939V21.5696V14.9943V7.84157L27.1268 6.55401C24.5479 5.69029 21.8474 5.24999 19.1293 5.24999H10.9876C9.6362 5.24999 8.42468 6.26561 8.34934 7.62282C8.2691 9.06806 9.40232 10.2638 10.8174 10.2812H8.88011C7.43453 10.2812 6.13839 11.3678 6.05824 12.8197C5.97275 14.366 7.18585 15.6453 8.70013 15.6626H6.75938C5.2409 15.6626 4.01923 16.9408 4.09955 18.486C4.17498 19.9349 5.4677 21.0213 6.91005 21.0213Z" fill="url(#paint3_linear_3097_2010)"/>
<path d="M6.00704 22.0489H10.2094C11.2723 22.0489 12.1338 22.9106 12.1338 23.9734V23.9848C12.1338 25.0477 11.2722 25.9093 10.2094 25.9093H6.00704C4.94417 25.9093 4.08256 25.0477 4.08256 23.9848V23.9734C4.08265 22.9106 4.94417 22.0489 6.00704 22.0489Z" fill="url(#paint4_linear_3097_2010)"/>
<path d="M6.48938 16.4727H10.6917C11.7546 16.4727 12.6162 17.3343 12.6162 18.3971V18.4085C12.6162 19.4714 11.7546 20.333 10.6917 20.333H6.48938C5.42651 20.333 4.56499 19.4714 4.56499 18.4085V18.3971C4.56499 17.3343 5.42651 16.4727 6.48938 16.4727Z" fill="url(#paint5_linear_3097_2010)"/>
<path d="M8.47082 11.028H12.6732C13.736 11.028 14.5977 11.8896 14.5977 12.9525V12.9638C14.5977 14.0267 13.736 14.8883 12.6732 14.8883H8.47082C7.40795 14.8883 6.54634 14.0267 6.54634 12.9638V12.9525C6.54634 11.8896 7.40795 11.028 8.47082 11.028Z" fill="url(#paint6_linear_3097_2010)"/>
<path d="M10.8634 5.7463H15.0658C16.1286 5.7463 16.9902 6.60791 16.9902 7.67077V7.68215C16.9902 8.74501 16.1286 9.60654 15.0658 9.60654H10.8634C9.80053 9.60654 8.93901 8.74492 8.93901 7.68215V7.67077C8.93901 6.60782 9.80062 5.7463 10.8634 5.7463Z" fill="url(#paint7_linear_3097_2010)"/>
<path d="M31.9053 25.9219H37.2027C37.9267 25.9219 38.5137 25.3473 38.5137 24.6386V6.53327C38.5137 5.82452 37.9267 5.25 37.2027 5.25H31.9053C31.1813 5.25 30.5944 5.82452 30.5944 6.53327V24.6386C30.5944 25.3473 31.1813 25.9219 31.9053 25.9219Z" fill="url(#paint8_linear_3097_2010)"/>
<path d="M35.8739 19.894C35.1451 19.894 34.5544 20.4883 34.5544 21.2214C34.5544 21.9545 35.1451 22.5487 35.8739 22.5487C36.6026 22.5487 37.1934 21.9545 37.1934 21.2214C37.1934 20.4883 36.6026 19.894 35.8739 19.894Z" fill="url(#paint9_linear_3097_2010)"/>
<path opacity="0.2" d="M6.90993 21.0213H6.94782C6.20092 21.0382 5.30405 21.3487 4.57333 21.8399C2.66137 23.1251 3.42962 26.2209 5.63427 26.6321C5.80927 26.6647 5.98733 26.6801 6.16522 26.6801C6.16531 26.6801 8.00027 26.6801 10.3237 26.6801C10.2965 26.2694 10.2616 25.8607 10.2616 25.4431C10.2616 15.2865 18.4467 7.05293 28.5434 7.05293C28.5726 7.05293 28.6007 7.05721 28.6299 7.0573L27.1266 6.55392C24.5477 5.69029 21.8473 5.24999 19.1292 5.24999H10.9874C9.63608 5.24999 8.42456 6.2656 8.34922 7.62282C8.26898 9.06805 9.40219 10.2638 10.8172 10.2812H8.87999C7.43441 10.2812 6.13827 11.3678 6.05812 12.8197C5.97263 14.366 7.18573 15.6453 8.70001 15.6626H6.75926C5.24078 15.6626 4.0191 16.9408 4.09943 18.486C4.17485 19.9349 5.46758 21.0213 6.90993 21.0213Z" fill="url(#paint10_linear_3097_2010)"/>
<path opacity="0.3" d="M31.9054 25.9219H37.2027C37.9267 25.9219 38.5137 25.3473 38.5137 24.6386V24.613H36.8772C36.8772 24.613 32.3521 24.604 32.3521 19.0071V5.25H31.9053C31.1813 5.25 30.5944 5.82453 30.5944 6.53336V24.6386C30.5944 25.3473 31.1813 25.9219 31.9054 25.9219Z" fill="url(#paint11_linear_3097_2010)"/>
<defs>
<linearGradient id="paint0_linear_3097_2010" x1="17.7779" y1="35.8277" x2="24.0753" y2="24.1194" gradientUnits="userSpaceOnUse">
<stop stop-color="#FFDFCF"/>
<stop offset="1" stop-color="#FFA78F"/>
</linearGradient>
<linearGradient id="paint1_linear_3097_2010" x1="30.4576" y1="24.0047" x2="30.6519" y2="23.6434" gradientUnits="userSpaceOnUse">
<stop stop-color="#FFDFCF"/>
<stop offset="1" stop-color="#FFA78F"/>
</linearGradient>
<linearGradient id="paint2_linear_3097_2010" x1="15.8403" y1="35.1312" x2="20.1575" y2="27.1049" gradientUnits="userSpaceOnUse">
<stop stop-color="#FFDFCF"/>
<stop offset="1" stop-color="#FFA78F"/>
</linearGradient>
<linearGradient id="paint3_linear_3097_2010" x1="24.6346" y1="25.6165" x2="10.4377" y2="7.92137" gradientUnits="userSpaceOnUse">
<stop stop-color="#FFDFCF"/>
<stop offset="1" stop-color="#FFA78F"/>
</linearGradient>
<linearGradient id="paint4_linear_3097_2010" x1="7.39006" y1="24.7091" x2="4.44481" y2="27.7051" gradientUnits="userSpaceOnUse">
<stop stop-color="#FFDFCF" stop-opacity="0"/>
<stop offset="1" stop-color="#FFA78F"/>
</linearGradient>
<linearGradient id="paint5_linear_3097_2010" x1="7.8724" y1="19.1327" x2="4.92715" y2="22.1287" gradientUnits="userSpaceOnUse">
<stop stop-color="#FFDFCF" stop-opacity="0"/>
<stop offset="1" stop-color="#FFA78F"/>
</linearGradient>
<linearGradient id="paint6_linear_3097_2010" x1="9.85402" y1="13.6885" x2="6.90877" y2="16.6836" gradientUnits="userSpaceOnUse">
<stop stop-color="#FFDFCF" stop-opacity="0"/>
<stop offset="1" stop-color="#FFA78F"/>
</linearGradient>
<linearGradient id="paint7_linear_3097_2010" x1="12.2461" y1="8.407" x2="9.30082" y2="11.4021" gradientUnits="userSpaceOnUse">
<stop stop-color="#FFDFCF" stop-opacity="0"/>
<stop offset="1" stop-color="#FFA78F"/>
</linearGradient>
<linearGradient id="paint8_linear_3097_2010" x1="34.5542" y1="6.216" x2="34.5542" y2="25.1702" gradientUnits="userSpaceOnUse">
<stop stop-color="#197BFF"/>
<stop offset="1" stop-color="#27B2FF"/>
</linearGradient>
<linearGradient id="paint9_linear_3097_2010" x1="35.8739" y1="20.0174" x2="35.8739" y2="22.4525" gradientUnits="userSpaceOnUse">
<stop stop-color="#5F5F60"/>
<stop offset="1" stop-color="#282828"/>
</linearGradient>
<linearGradient id="paint10_linear_3097_2010" x1="18.5935" y1="19.1432" x2="9.06996" y2="7.31936" gradientUnits="userSpaceOnUse">
<stop stop-color="#FFDFCF"/>
<stop offset="1" stop-color="#FFA78F"/>
</linearGradient>
<linearGradient id="paint11_linear_3097_2010" x1="34.5542" y1="6.216" x2="34.5542" y2="25.1702" gradientUnits="userSpaceOnUse">
<stop stop-color="#197BFF"/>
<stop offset="1" stop-color="#27B2FF"/>
</linearGradient>
</defs>
</svg>
