<svg width="42" height="42" viewBox="0 0 42 42" fill="none" xmlns="http://www.w3.org/2000/svg">
<path d="M41.1273 31.4959L26.2908 4.22248C23.907 0.20943 18.0962 0.204099 15.7092 4.22248L0.873377 31.4959C-1.56344 35.5966 1.38681 40.7893 6.16292 40.7893H35.8366C40.6087 40.7893 43.5642 35.6007 41.1273 31.4959ZM21 35.8674C19.6434 35.8674 18.5391 34.7631 18.5391 33.4065C18.5391 32.0499 19.6434 30.9456 21 30.9456C22.3566 30.9456 23.4609 32.0499 23.4609 33.4065C23.4609 34.7631 22.3566 35.8674 21 35.8674ZM23.4609 26.0237C23.4609 27.3803 22.3566 28.4846 21 28.4846C19.6434 28.4846 18.5391 27.3803 18.5391 26.0237V13.719C18.5391 12.3624 19.6434 11.2581 21 11.2581C22.3566 11.2581 23.4609 12.3624 23.4609 13.719V26.0237Z" fill="#FF8200"/>
</svg>
