<svg width="42" height="42" viewBox="0 0 42 42" fill="none" xmlns="http://www.w3.org/2000/svg">
<g clip-path="url(#clip0_3097_1775)">
<path d="M40.9501 18.186C40.9488 18.185 40.9478 18.1837 40.9469 18.1828L23.8141 1.05071C23.0839 0.320115 22.113 -0.0820312 21.0802 -0.0820312C20.0474 -0.0820312 19.0765 0.320115 18.3459 1.05071L1.22218 18.1741C1.21641 18.1799 1.21033 18.186 1.20488 18.1917C-0.294757 19.7 -0.292194 22.1472 1.21225 23.6516C1.89958 24.3393 2.80706 24.7373 3.77765 24.7793C3.81739 24.7831 3.85712 24.785 3.89718 24.785H4.5797V37.3929C4.5797 39.8881 6.60998 41.9181 9.10521 41.9181H15.8081C16.4877 41.9181 17.0385 41.3669 17.0385 40.6876V30.8028C17.0385 29.6643 17.9649 28.7382 19.1034 28.7382H23.057C24.1955 28.7382 25.1215 29.6643 25.1215 30.8028V40.6876C25.1215 41.3669 25.6723 41.9181 26.352 41.9181H33.0549C35.5504 41.9181 37.5804 39.8881 37.5804 37.3929V24.785H38.2135C39.246 24.785 40.2169 24.3829 40.9478 23.652C42.4539 22.1453 42.4545 19.6936 40.9501 18.186ZM39.2075 21.912C38.9419 22.1776 38.5888 22.3241 38.2135 22.3241H36.3499C35.6702 22.3241 35.1194 22.8749 35.1194 23.5546V37.3929C35.1194 38.5311 34.1934 39.4571 33.0549 39.4571H27.5825V30.8028C27.5825 28.3076 25.5525 26.2773 23.057 26.2773H19.1034C16.6079 26.2773 14.5776 28.3076 14.5776 30.8028V39.4571H9.10521C7.96702 39.4571 7.04064 38.5311 7.04064 37.3929V23.5546C7.04064 22.8749 6.48982 22.3241 5.81017 22.3241H3.97857C3.95934 22.3228 3.94043 22.3218 3.92089 22.3215C3.55431 22.3151 3.21048 22.1696 2.95285 21.9117C2.40491 21.3637 2.40491 20.472 2.95285 19.9237C2.95317 19.9237 2.95317 19.9234 2.95349 19.9231L2.95446 19.9221L20.0865 2.79067C20.3518 2.52503 20.7046 2.37891 21.0802 2.37891C21.4554 2.37891 21.8082 2.52503 22.0739 2.79067L39.2021 19.9186C39.2046 19.9211 39.2075 19.9237 39.2101 19.9263C39.7552 20.4752 39.7542 21.365 39.2075 21.912Z" fill="#002D72"/>
</g>
<defs>
<clipPath id="clip0_3097_1775">
<rect width="42" height="42" fill="white"/>
</clipPath>
</defs>
</svg>
