<svg width="42" height="42" viewBox="0 0 42 42" fill="none" xmlns="http://www.w3.org/2000/svg">
<g clip-path="url(#clip0_3097_1933)">
<path d="M21 42C32.598 42 42 32.598 42 21C42 9.40202 32.598 0 21 0C9.40202 0 0 9.40202 0 21C0 32.598 9.40202 42 21 42Z" fill="url(#paint0_linear_3097_1933)"/>
<path d="M29.3224 25.1106C29.2511 26.136 26.7655 29.6838 20.9183 29.6838C15.0711 29.6838 12.5864 26.136 12.5142 25.1106C12.4503 24.1902 13.0819 23.803 13.8571 23.9613C14.6315 24.1196 16.5387 25.9104 20.9175 25.9104C25.2963 25.9104 27.2036 24.1196 27.9779 23.9605C28.7523 23.8022 29.3856 24.1886 29.3208 25.1098L29.3224 25.1106Z" fill="url(#paint1_radial_3097_1933)"/>
<path d="M28.329 19.3454C31.0985 19.3454 33.3436 17.1003 33.3436 14.3309C33.3436 11.5614 31.0985 9.31628 28.329 9.31628C25.5596 9.31628 23.3145 11.5614 23.3145 14.3309C23.3145 17.1003 25.5596 19.3454 28.329 19.3454Z" fill="url(#paint2_radial_3097_1933)"/>
<path d="M28.3289 17.5875C30.1275 17.5875 31.5855 16.1295 31.5855 14.3309C31.5855 12.5323 30.1275 11.0742 28.3289 11.0742C26.5303 11.0742 25.0723 12.5323 25.0723 14.3309C25.0723 16.1295 26.5303 17.5875 28.3289 17.5875Z" fill="url(#paint3_radial_3097_1933)"/>
<path d="M29.9066 14.4342C30.8344 14.4342 31.5866 13.6821 31.5866 12.7542C31.5866 11.8264 30.8344 11.0742 29.9066 11.0742C28.9787 11.0742 28.2266 11.8264 28.2266 12.7542C28.2266 13.6821 28.9787 14.4342 29.9066 14.4342Z" fill="white"/>
<path d="M13.5888 19.3454C16.3583 19.3454 18.6034 17.1003 18.6034 14.3309C18.6034 11.5614 16.3583 9.31628 13.5888 9.31628C10.8193 9.31628 8.57422 11.5614 8.57422 14.3309C8.57422 17.1003 10.8193 19.3454 13.5888 19.3454Z" fill="url(#paint4_radial_3097_1933)"/>
<path d="M13.5887 17.5875C15.3873 17.5875 16.8453 16.1295 16.8453 14.3309C16.8453 12.5323 15.3873 11.0742 13.5887 11.0742C11.7901 11.0742 10.332 12.5323 10.332 14.3309C10.332 16.1295 11.7901 17.5875 13.5887 17.5875Z" fill="url(#paint5_radial_3097_1933)"/>
<path d="M15.1663 14.4342C16.0942 14.4342 16.8463 13.6821 16.8463 12.7542C16.8463 11.8264 16.0942 11.0742 15.1663 11.0742C14.2385 11.0742 13.4863 11.8264 13.4863 12.7542C13.4863 13.6821 14.2385 14.4342 15.1663 14.4342Z" fill="white"/>
</g>
<defs>
<linearGradient id="paint0_linear_3097_1933" x1="6.1507" y1="6.1507" x2="35.8493" y2="35.8493" gradientUnits="userSpaceOnUse">
<stop offset="0.1" stop-color="#FFF1AB"/>
<stop offset="0.4" stop-color="#FFDA24"/>
<stop offset="0.51" stop-color="#FFC81D"/>
<stop offset="0.74" stop-color="#FF9A0C"/>
<stop offset="0.9" stop-color="#FF7700"/>
</linearGradient>
<radialGradient id="paint1_radial_3097_1933" cx="0" cy="0" r="1" gradientUnits="userSpaceOnUse" gradientTransform="translate(20.9183 26.8054) scale(6.28441)">
<stop stop-color="#614444"/>
<stop offset="0.38" stop-color="#583C3C"/>
<stop offset="1" stop-color="#402828"/>
</radialGradient>
<radialGradient id="paint2_radial_3097_1933" cx="0" cy="0" r="1" gradientUnits="userSpaceOnUse" gradientTransform="translate(28.329 14.3309) scale(5.01457)">
<stop offset="0.75" stop-color="white"/>
<stop offset="0.82" stop-color="#FAFAFA"/>
<stop offset="0.89" stop-color="#EEEEEE"/>
<stop offset="0.96" stop-color="#D9D9D9"/>
<stop offset="1" stop-color="#CCCCCC"/>
</radialGradient>
<radialGradient id="paint3_radial_3097_1933" cx="0" cy="0" r="1" gradientUnits="userSpaceOnUse" gradientTransform="translate(28.3289 14.3309) scale(3.25664)">
<stop stop-color="#705454"/>
<stop offset="0.27" stop-color="#674C4C"/>
<stop offset="0.71" stop-color="#4E3838"/>
<stop offset="1" stop-color="#3B2828"/>
</radialGradient>
<radialGradient id="paint4_radial_3097_1933" cx="0" cy="0" r="1" gradientUnits="userSpaceOnUse" gradientTransform="translate(13.5888 14.3309) scale(5.01457)">
<stop offset="0.75" stop-color="white"/>
<stop offset="0.82" stop-color="#FAFAFA"/>
<stop offset="0.89" stop-color="#EEEEEE"/>
<stop offset="0.96" stop-color="#D9D9D9"/>
<stop offset="1" stop-color="#CCCCCC"/>
</radialGradient>
<radialGradient id="paint5_radial_3097_1933" cx="0" cy="0" r="1" gradientUnits="userSpaceOnUse" gradientTransform="translate(13.5887 14.3309) scale(3.25664)">
<stop stop-color="#705454"/>
<stop offset="0.27" stop-color="#674C4C"/>
<stop offset="0.71" stop-color="#4E3838"/>
<stop offset="1" stop-color="#3B2828"/>
</radialGradient>
<clipPath id="clip0_3097_1933">
<rect width="42" height="42" fill="white"/>
</clipPath>
</defs>
</svg>
