<?xml version="1.0" encoding="UTF-8"?> <svg xmlns="http://www.w3.org/2000/svg" width="36" height="36" viewBox="0 0 36 36" fill="none"><path fill-rule="evenodd" clip-rule="evenodd" d="M0 18C0 8.05888 8.05888 0 18 0C27.9411 0 36 8.05888 36 18C36 27.9411 27.9411 36 18 36C8.05888 36 0 27.9411 0 18Z" fill="#E40046"></path><path d="M11.1521 15.1101H14.5063V25.8956H11.1521V15.1101ZM12.8233 9.75293C13.9018 9.75293 14.767 10.6181 14.767 11.6967C14.767 12.7752 13.9018 13.6404 12.8233 13.6404C11.7447 13.6404 10.8795 12.7634 10.8795 11.6967C10.8795 10.63 11.7447 9.75293 12.8233 9.75293Z" fill="#0C2448"></path><path d="M16.604 15.11H19.816V16.5797H19.8634C20.3138 15.7263 21.4042 14.8374 23.0398 14.8374C26.4295 14.8374 27.0576 17.0656 27.0576 19.9694V25.8836H23.7035V20.645C23.7035 19.3886 23.6798 17.7886 21.9612 17.7886C20.2426 17.7886 19.9463 19.1516 19.9463 20.562V25.8955H16.5922V15.11H16.604Z" fill="#0C2448"></path></svg> 