<svg width="42" height="42" viewBox="0 0 42 42" fill="none" xmlns="http://www.w3.org/2000/svg">
<path d="M38.9682 22.6214C38.8022 22.3288 38.5799 22.072 38.3141 21.8657C38.0483 21.6595 37.7443 21.5079 37.4196 21.4198C37.095 21.3317 36.756 21.3087 36.4225 21.3523C36.0889 21.3958 35.7672 21.505 35.4761 21.6736L34.4849 22.2281L34.7109 21.637C35.849 18.3431 31.101 16.5255 29.7467 19.7548C29.7141 19.8411 27.6944 25.1295 27.2581 26.272L24.9415 27.5683C24.5956 27.7583 24.1922 27.8155 23.8071 27.7291L17.7522 27.4036C19.2443 26.3346 21.0711 25.1603 22.6125 23.9954C23.048 23.6786 23.3944 23.2548 23.6183 22.765C23.8422 22.2752 23.9359 21.736 23.8904 21.1993C23.687 19.034 21.0159 17.9959 19.1794 19.1679L14.4293 21.9325C13.578 22.5082 12.6135 22.8952 11.6005 23.0675C9.76133 23.3803 8.08229 24.3067 6.8369 25.6957C6.25043 26.5365 4.25676 27.592 3.03721 28.0868C2.95453 28.1201 2.8795 28.1699 2.81669 28.2332C2.75388 28.2964 2.7046 28.3718 2.67187 28.4548C2.63913 28.5377 2.62361 28.6264 2.62627 28.7155C2.62892 28.8046 2.64969 28.8923 2.6873 28.9731L7.36116 38.9963C7.43504 39.1537 7.5683 39.2755 7.73177 39.335C7.89523 39.3944 8.07559 39.3867 8.23338 39.3135L13.1187 37.0326C14.0711 36.4757 19.3672 35.3331 22.5318 34.6505C25.1824 33.9909 25.9474 34.1509 27.6998 33.151C29.6673 31.8486 35.471 28.0201 38.2011 26.2205C38.7757 25.8413 39.1782 25.2514 39.3218 24.5781C39.4653 23.9047 39.3383 23.2019 38.9682 22.6214ZM29.6877 23.5898C30.4055 21.7094 30.7747 20.7437 30.9124 20.2143L30.9676 20.2367C31.0297 20.0718 31.1237 19.9207 31.2443 19.792C31.3648 19.6634 31.5095 19.5598 31.6701 19.4871C31.8307 19.4144 32.004 19.3741 32.1802 19.3684C32.3564 19.3627 32.532 19.3917 32.697 19.4539C32.8619 19.516 33.013 19.61 33.1416 19.7306C33.2702 19.8511 33.3739 19.9958 33.4466 20.1564C33.5192 20.317 33.5596 20.4903 33.5653 20.6665C33.571 20.8427 33.542 21.0183 33.4798 21.1832L32.6981 23.228L29.0453 25.2719L29.6877 23.5898ZM37.4698 25.131C34.748 26.9242 28.943 30.754 26.9775 32.055C26.5871 32.3079 26.1548 32.4895 25.7009 32.5914C22.5008 33.3413 13.1117 35.2671 12.5099 35.8715L8.27312 37.8465L4.16063 29.0269C5.15847 28.5667 7.06313 27.5926 7.83666 26.5467C8.88139 25.3926 10.2837 24.6232 11.8184 24.362C13.0028 24.1624 14.131 23.7125 15.1278 23.0425L19.8389 20.3027C21.8152 19.121 23.7005 21.4675 21.823 22.947C20.2484 24.14 18.235 25.4221 16.739 26.5185C16.5424 26.6685 16.3961 26.8748 16.3198 27.1101C16.2434 27.3453 16.2406 27.5982 16.3117 27.8351C16.3828 28.0719 16.5244 28.2815 16.7177 28.4358C16.9109 28.5901 17.1466 28.6818 17.3934 28.6987L23.695 29.0378C24.3429 29.1492 25.0094 29.0347 25.583 28.7135L36.1029 22.8265C36.4072 22.6671 36.7611 22.6306 37.0915 22.7244C37.422 22.8182 37.7039 23.0352 37.8791 23.3306C38.0544 23.6261 38.1096 23.9775 38.0334 24.3124C37.9573 24.6474 37.7556 24.9404 37.4698 25.131Z" fill="#002D72"/>
<path d="M26.251 2.625C24.6935 2.625 23.1709 3.08686 21.8759 3.95218C20.5808 4.81749 19.5715 6.0474 18.9754 7.48637C18.3794 8.92534 18.2234 10.5087 18.5273 12.0363C18.8312 13.5639 19.5812 14.9671 20.6825 16.0685C21.7839 17.1698 23.187 17.9198 24.7146 18.2237C26.2422 18.5275 27.8256 18.3716 29.2646 17.7756C30.7036 17.1795 31.9335 16.1702 32.7988 14.8751C33.6641 13.5801 34.126 12.0575 34.126 10.5C34.1243 8.41193 33.2941 6.40985 31.8176 4.93336C30.3411 3.45687 28.3391 2.62665 26.251 2.625ZM26.251 17.0625C24.953 17.0625 23.6842 16.6776 22.6051 15.9565C21.5259 15.2354 20.6847 14.2105 20.188 13.0114C19.6913 11.8122 19.5614 10.4927 19.8146 9.21972C20.0678 7.94672 20.6928 6.77739 21.6106 5.85961C22.5284 4.94183 23.6977 4.31681 24.9707 4.0636C26.2437 3.81038 27.5632 3.94034 28.7623 4.43704C29.9615 4.93374 30.9864 5.77487 31.7075 6.85407C32.4286 7.93327 32.8135 9.20206 32.8135 10.5C32.8106 12.2396 32.1183 13.9071 30.8882 15.1372C29.6581 16.3673 27.9906 17.0596 26.251 17.0625Z" fill="#002D72"/>
<path d="M24.6104 8.40566C24.6102 8.11254 24.6885 7.82473 24.8372 7.57212C24.9859 7.31952 25.1995 7.11133 25.4558 6.9692C25.7122 6.82707 26.0019 6.75618 26.2949 6.76389C26.588 6.7716 26.8736 6.85763 27.1221 7.01305C27.3706 7.16847 27.573 7.3876 27.7082 7.64768C27.8433 7.90775 27.9064 8.19929 27.8908 8.49199C27.8753 8.78469 27.7816 9.06788 27.6195 9.31213C27.4575 9.55638 27.233 9.75279 26.9694 9.88094C26.5487 10.0998 26.1973 10.4316 25.9545 10.8389C25.7117 11.2463 25.5871 11.7132 25.5948 12.1874C25.539 12.6377 25.7449 13.0938 26.251 13.1C26.7563 13.0962 26.9634 12.6347 26.9072 12.1874C26.8989 11.9589 26.9542 11.7325 27.0668 11.5335C27.1795 11.3345 27.3452 11.1706 27.5455 11.0601C30.042 9.8781 29.5883 6.00789 26.8368 5.50961C26.4082 5.42637 25.9666 5.43855 25.5434 5.54527C25.1201 5.65199 24.7255 5.85065 24.3877 6.12711C24.0498 6.40357 23.777 6.75105 23.5887 7.14486C23.4003 7.53866 23.301 7.96912 23.2979 8.40565C23.3012 8.57748 23.3718 8.74114 23.4945 8.86148C23.6172 8.98182 23.7822 9.04923 23.9541 9.04923C24.126 9.04924 24.291 8.98183 24.4137 8.86149C24.5364 8.74116 24.607 8.57749 24.6104 8.40566Z" fill="#002D72"/>
<path d="M27.0514 14.7459C27.0514 14.9043 27.0045 15.0591 26.9165 15.1907C26.8285 15.3224 26.7035 15.425 26.5572 15.4856C26.4109 15.5462 26.2499 15.5621 26.0946 15.5312C25.9393 15.5003 25.7967 15.424 25.6847 15.3121C25.5727 15.2001 25.4965 15.0574 25.4656 14.9021C25.4347 14.7468 25.4505 14.5858 25.5111 14.4396C25.5717 14.2933 25.6744 14.1682 25.806 14.0802C25.9377 13.9923 26.0925 13.9453 26.2508 13.9453C26.4629 13.9462 26.6661 14.0308 26.816 14.1807C26.966 14.3307 27.0506 14.5339 27.0514 14.7459Z" fill="#002D72"/>
</svg>
