<svg width="42" height="42" viewBox="0 0 42 42" fill="none" xmlns="http://www.w3.org/2000/svg">
<g clip-path="url(#clip0_3097_1830)">
<path d="M35.4668 5.91814H34.1093V4.56069C34.1093 3.85883 33.5384 3.28789 32.8365 3.28789H24.744C24.5267 2.89628 24.1092 2.63033 23.6305 2.63033H14.3229C14.0345 1.134 12.7158 0 11.1366 0C9.55737 0 8.23864 1.134 7.9503 2.63025H6.53354C5.83168 2.63025 5.26074 3.20119 5.26074 3.90305V21C5.26074 21.4787 5.52669 21.8962 5.9183 22.1135V38.097C5.9183 38.7988 6.48924 39.3698 7.1911 39.3698H8.54855V40.7272C8.54855 41.4291 9.11949 42.0001 9.82135 42.0001H35.4667C36.1686 42.0001 36.7395 41.4291 36.7395 40.7272V7.19094C36.7396 6.48908 36.1686 5.91814 35.4668 5.91814ZM6.49121 3.90313C6.49121 3.87975 6.51016 3.8608 6.53354 3.8608H7.89099V9.82136C7.89099 11.6109 9.34696 13.0668 11.1366 13.0668C12.9262 13.0668 14.382 11.6109 14.382 9.82127V7.19094C14.382 6.1265 13.516 5.26058 12.4517 5.26058C11.3873 5.26058 10.5213 6.12659 10.5213 7.19094V8.50607C10.5213 8.84584 10.7968 9.1213 11.1366 9.1213C11.4763 9.1213 11.7518 8.84584 11.7518 8.50607V7.19094C11.7518 6.80498 12.0658 6.49105 12.4517 6.49105C12.8376 6.49105 13.1516 6.80507 13.1516 7.19094V9.82119C13.1516 10.9323 12.2476 11.8363 11.1365 11.8363C10.0254 11.8363 9.12146 10.9323 9.12146 9.82127V3.24795C9.12146 3.24713 9.12154 3.24639 9.12154 3.24557C9.12154 3.24499 9.12146 3.2445 9.12146 3.24401C9.12236 2.13355 10.0259 1.23047 11.1366 1.23047C12.0332 1.23047 12.7945 1.81921 13.0552 2.63025H11.1362C10.7965 2.63025 10.521 2.90571 10.521 3.24548C10.521 3.58526 10.7965 3.86072 11.1362 3.86072H23.6304C23.6538 3.86072 23.6727 3.87967 23.6727 3.90305V21C23.6727 21.0234 23.6538 21.0423 23.6304 21.0423H6.53354C6.51016 21.0423 6.49121 21.0234 6.49121 21V3.90313ZM35.5091 40.7271C35.5091 40.7505 35.4902 40.7695 35.4668 40.7695H9.82143C9.79805 40.7695 9.77911 40.7506 9.77911 40.7271V39.3697H27.0313C27.5469 39.3697 28.0317 39.1689 28.3963 38.8042L33.544 33.6567C33.9086 33.2921 34.1094 32.8073 34.1094 32.2917V10.4789C34.1094 10.1391 33.834 9.86368 33.4942 9.86368C33.1544 9.86368 32.8789 10.1391 32.8789 10.4789V32.2211H28.2336C27.5317 32.2211 26.9608 32.7921 26.9608 33.4939V38.1393H7.19127C7.16789 38.1393 7.14894 38.1203 7.14894 38.097V22.2728H23.6306C24.3324 22.2728 24.9034 21.7019 24.9034 21V4.51836H32.8366C32.86 4.51836 32.8789 4.53731 32.8789 4.56069V7.84859C32.8789 8.18836 33.1544 8.46382 33.4942 8.46382C33.834 8.46382 34.1094 8.18836 34.1094 7.84859V7.14861H35.4669C35.4902 7.14861 35.5092 7.16756 35.5092 7.19094V40.7271H35.5091ZM28.1911 37.2693V33.4939C28.1911 33.4706 28.2101 33.4516 28.2334 33.4516H32.0089L28.1911 37.2693Z" fill="#002D72"/>
<path d="M17.0547 9.77887H20.3426C20.6824 9.77887 20.9578 9.50341 20.9578 9.16364C20.9578 8.82386 20.6824 8.5484 20.3426 8.5484H17.0547C16.7149 8.5484 16.4395 8.82386 16.4395 9.16364C16.4395 9.50341 16.7149 9.77887 17.0547 9.77887Z" fill="#002D72"/>
<path d="M17.0547 13.0668H20.3426C20.6824 13.0668 20.9578 12.7914 20.9578 12.4516C20.9578 12.1118 20.6824 11.8364 20.3426 11.8364H17.0547C16.7149 11.8364 16.4395 12.1118 16.4395 12.4516C16.4395 12.7914 16.7149 13.0668 17.0547 13.0668Z" fill="#002D72"/>
<path d="M9.82129 16.3546H20.3425C20.6822 16.3546 20.9577 16.0792 20.9577 15.7394C20.9577 15.3996 20.6822 15.1242 20.3425 15.1242H9.82129C9.48152 15.1242 9.20605 15.3996 9.20605 15.7394C9.20605 16.0792 9.48143 16.3546 9.82129 16.3546Z" fill="#002D72"/>
<path d="M29.5485 15.1242H28.2334C27.8936 15.1242 27.6182 15.3996 27.6182 15.7394C27.6182 16.0792 27.8936 16.3546 28.2334 16.3546H29.5485C29.8883 16.3546 30.1638 16.0792 30.1638 15.7394C30.1638 15.3996 29.8884 15.1242 29.5485 15.1242Z" fill="#002D72"/>
<path d="M29.5485 8.5484H28.2334C27.8936 8.5484 27.6182 8.82386 27.6182 9.16364C27.6182 9.50341 27.8936 9.77887 28.2334 9.77887H29.5485C29.8883 9.77887 30.1638 9.50341 30.1638 9.16364C30.1638 8.82386 29.8884 8.5484 29.5485 8.5484Z" fill="#002D72"/>
<path d="M29.5485 11.8364H28.2334C27.8936 11.8364 27.6182 12.1118 27.6182 12.4516C27.6182 12.7914 27.8936 13.0668 28.2334 13.0668H29.5485C29.8883 13.0668 30.1638 12.7914 30.1638 12.4516C30.1638 12.1118 29.8884 11.8364 29.5485 11.8364Z" fill="#002D72"/>
<path d="M29.5485 18.4121H28.2334C27.8936 18.4121 27.6182 18.6875 27.6182 19.0273C27.6182 19.3671 27.8936 19.6425 28.2334 19.6425H29.5485C29.8883 19.6425 30.1638 19.3671 30.1638 19.0273C30.1638 18.6875 29.8884 18.4121 29.5485 18.4121Z" fill="#002D72"/>
<path d="M11.7937 24.3302H10.4785C10.1387 24.3302 9.86328 24.6057 9.86328 24.9455C9.86328 25.2852 10.1387 25.5607 10.4785 25.5607H11.7937C12.1335 25.5607 12.409 25.2852 12.409 24.9455C12.409 24.6057 12.1336 24.3302 11.7937 24.3302Z" fill="#002D72"/>
<path d="M11.7937 30.9059H10.4785C10.1387 30.9059 9.86328 31.1814 9.86328 31.5212C9.86328 31.861 10.1387 32.1364 10.4785 32.1364H11.7937C12.1335 32.1364 12.409 31.861 12.409 31.5212C12.409 31.1814 12.1336 30.9059 11.7937 30.9059Z" fill="#002D72"/>
<path d="M11.7937 27.618H10.4785C10.1387 27.618 9.86328 27.8935 9.86328 28.2333C9.86328 28.573 10.1387 28.8485 10.4785 28.8485H11.7937C12.1335 28.8485 12.409 28.573 12.409 28.2333C12.409 27.8935 12.1336 27.618 11.7937 27.618Z" fill="#002D72"/>
<path d="M29.5486 24.3302H15.082C14.7423 24.3302 14.4668 24.6057 14.4668 24.9455C14.4668 25.2852 14.7423 25.5607 15.082 25.5607H29.5486C29.8883 25.5607 30.1638 25.2852 30.1638 24.9455C30.1638 24.6057 29.8884 24.3302 29.5486 24.3302Z" fill="#002D72"/>
<path d="M24.2881 30.9059H15.082C14.7423 30.9059 14.4668 31.1814 14.4668 31.5212C14.4668 31.861 14.7423 32.1364 15.082 32.1364H24.2881C24.6278 32.1364 24.9033 31.861 24.9033 31.5212C24.9033 31.1814 24.6278 30.9059 24.2881 30.9059Z" fill="#002D72"/>
<path d="M29.5486 27.618H15.082C14.7423 27.618 14.4668 27.8935 14.4668 28.2333C14.4668 28.573 14.7423 28.8485 15.082 28.8485H29.5486C29.8883 28.8485 30.1638 28.573 30.1638 28.2333C30.1638 27.8935 29.8884 27.618 29.5486 27.618Z" fill="#002D72"/>
</g>
<defs>
<clipPath id="clip0_3097_1830">
<rect width="42" height="42" fill="white"/>
</clipPath>
</defs>
</svg>
