<svg width="24" height="24" viewBox="0 0 24 24" fill="none" xmlns="http://www.w3.org/2000/svg">
<g clip-path="url(#clip0_3097_1902)">
<path d="M16.8994 20C16.4344 22.279 14.4144 24 12.0004 24C9.58643 24 7.56543 22.279 7.10143 20H16.8994ZM20.5004 7C22.4304 7 24.0004 5.43 24.0004 3.5C24.0004 1.57 22.4304 0 20.5004 0C18.5704 0 17.0004 1.57 17.0004 3.5C17.0004 5.43 18.5704 7 20.5004 7ZM20.7404 8.988C20.6604 8.991 20.5814 9 20.5004 9C17.4674 9 15.0004 6.533 15.0004 3.5C15.0004 2.596 15.2234 1.744 15.6124 0.991C14.4304 0.356 13.0864 0 11.6764 0C7.77543 0 4.39843 2.709 3.55243 6.516L1.20243 14.113C0.605426 16.043 2.04843 17.999 4.06843 17.999H19.7244C21.8044 17.999 23.2534 15.934 22.5454 13.978L20.7394 8.986L20.7404 8.988Z" fill="#E40046"/>
</g>
<defs>
<clipPath id="clip0_3097_1902">
<rect width="24" height="24" fill="white"/>
</clipPath>
</defs>
</svg>
