<svg width="42" height="42" viewBox="0 0 42 42" fill="none" xmlns="http://www.w3.org/2000/svg">
<g clip-path="url(#clip0_3097_1916)">
<path d="M21 42C32.598 42 42 32.598 42 21C42 9.40202 32.598 0 21 0C9.40202 0 0 9.40202 0 21C0 32.598 9.40202 42 21 42Z" fill="url(#paint0_linear_3097_1916)"/>
<path d="M24.7322 11.6427C25.0669 10.6936 26.2596 10.3868 27.0069 11.0603C27.6886 11.6747 28.5918 12.3137 29.6836 12.6984C30.7754 13.0831 31.8796 13.1512 32.7959 13.1004C33.8008 13.0438 34.5374 14.0306 34.2027 14.9797C34.0493 15.4145 33.6949 15.7492 33.2511 15.8706C32.3759 16.1093 30.7631 16.3201 28.6672 15.581C26.5713 14.8427 25.4467 13.6672 24.9143 12.933C24.6444 12.5598 24.578 12.0766 24.7314 11.6427H24.7322Z" fill="url(#paint1_linear_3097_1916)"/>
<path d="M17.2632 11.6427C16.9285 10.6936 15.7358 10.3868 14.9885 11.0603C14.3068 11.6747 13.4037 12.3137 12.3118 12.6984C11.22 13.0831 10.1158 13.1512 9.19956 13.1004C8.19468 13.0438 7.45803 14.0306 7.79272 14.9797C7.94612 15.4145 8.3005 15.7492 8.74428 15.8706C9.61956 16.1093 11.2323 16.3201 13.3282 15.581C15.4241 14.8427 16.5487 13.6672 17.0811 12.933C17.351 12.5598 17.4174 12.0766 17.2641 11.6427H17.2632Z" fill="url(#paint2_linear_3097_1916)"/>
<path d="M15.3855 33.1308C15.433 32.4458 17.0925 30.0768 20.9972 30.0768C24.9019 30.0768 26.5614 32.4458 26.609 33.1308C26.6516 33.7452 26.23 34.0036 25.7116 33.8978C25.1948 33.7919 23.9208 32.5959 20.9964 32.5959C18.072 32.5959 16.7989 33.7919 16.2812 33.8978C15.7645 34.0036 15.3412 33.7452 15.3838 33.1308H15.3855Z" fill="url(#paint3_radial_3097_1916)"/>
<path d="M28.37 27.3976C31.1395 27.3976 33.3846 25.1525 33.3846 22.383C33.3846 19.6136 31.1395 17.3685 28.37 17.3685C25.6006 17.3685 23.3555 19.6136 23.3555 22.383C23.3555 25.1525 25.6006 27.3976 28.37 27.3976Z" fill="url(#paint4_radial_3097_1916)"/>
<path d="M28.3699 25.0655C30.1685 25.0655 31.6266 23.6074 31.6266 21.8088C31.6266 20.0102 30.1685 18.5522 28.3699 18.5522C26.5713 18.5522 25.1133 20.0102 25.1133 21.8088C25.1133 23.6074 26.5713 25.0655 28.3699 25.0655Z" fill="url(#paint5_radial_3097_1916)"/>
<path d="M29.9476 21.9114C30.8754 21.9114 31.6276 21.1592 31.6276 20.2314C31.6276 19.3035 30.8754 18.5514 29.9476 18.5514C29.0197 18.5514 28.2676 19.3035 28.2676 20.2314C28.2676 21.1592 29.0197 21.9114 29.9476 21.9114Z" fill="white"/>
<path d="M13.6298 27.3976C16.3993 27.3976 18.6444 25.1525 18.6444 22.383C18.6444 19.6136 16.3993 17.3685 13.6298 17.3685C10.8603 17.3685 8.61523 19.6136 8.61523 22.383C8.61523 25.1525 10.8603 27.3976 13.6298 27.3976Z" fill="url(#paint6_radial_3097_1916)"/>
<path d="M13.6297 25.0655C15.4283 25.0655 16.8863 23.6074 16.8863 21.8088C16.8863 20.0102 15.4283 18.5522 13.6297 18.5522C11.8311 18.5522 10.373 20.0102 10.373 21.8088C10.373 23.6074 11.8311 25.0655 13.6297 25.0655Z" fill="url(#paint7_radial_3097_1916)"/>
<path d="M15.2073 21.9114C16.1352 21.9114 16.8873 21.1592 16.8873 20.2314C16.8873 19.3035 16.1352 18.5514 15.2073 18.5514C14.2795 18.5514 13.5273 19.3035 13.5273 20.2314C13.5273 21.1592 14.2795 21.9114 15.2073 21.9114Z" fill="white"/>
</g>
<defs>
<linearGradient id="paint0_linear_3097_1916" x1="6.1507" y1="6.1507" x2="35.8493" y2="35.8493" gradientUnits="userSpaceOnUse">
<stop offset="0.1" stop-color="#FFF1AB"/>
<stop offset="0.4" stop-color="#FFDA24"/>
<stop offset="0.51" stop-color="#FFC81D"/>
<stop offset="0.74" stop-color="#FF9A0C"/>
<stop offset="0.9" stop-color="#FF7700"/>
</linearGradient>
<linearGradient id="paint1_linear_3097_1916" x1="29.4687" y1="16.0937" x2="29.4687" y2="10.6985" gradientUnits="userSpaceOnUse">
<stop stop-color="#3B2828"/>
<stop offset="1" stop-color="#705454"/>
</linearGradient>
<linearGradient id="paint2_linear_3097_1916" x1="12.5276" y1="16.0937" x2="12.5276" y2="10.6985" gradientUnits="userSpaceOnUse">
<stop stop-color="#3B2828"/>
<stop offset="1" stop-color="#705454"/>
</linearGradient>
<radialGradient id="paint3_radial_3097_1916" cx="0" cy="0" r="1" gradientUnits="userSpaceOnUse" gradientTransform="translate(20.998 31.9987) scale(4.19672 4.19672)">
<stop stop-color="#614444"/>
<stop offset="0.38" stop-color="#583C3C"/>
<stop offset="1" stop-color="#402828"/>
</radialGradient>
<radialGradient id="paint4_radial_3097_1916" cx="0" cy="0" r="1" gradientUnits="userSpaceOnUse" gradientTransform="translate(28.37 22.383) scale(5.01457)">
<stop offset="0.75" stop-color="white"/>
<stop offset="0.82" stop-color="#FAFAFA"/>
<stop offset="0.89" stop-color="#EEEEEE"/>
<stop offset="0.96" stop-color="#D9D9D9"/>
<stop offset="1" stop-color="#CCCCCC"/>
</radialGradient>
<radialGradient id="paint5_radial_3097_1916" cx="0" cy="0" r="1" gradientUnits="userSpaceOnUse" gradientTransform="translate(28.3699 21.8088) scale(3.25664)">
<stop stop-color="#705454"/>
<stop offset="0.27" stop-color="#674C4C"/>
<stop offset="0.71" stop-color="#4E3838"/>
<stop offset="1" stop-color="#3B2828"/>
</radialGradient>
<radialGradient id="paint6_radial_3097_1916" cx="0" cy="0" r="1" gradientUnits="userSpaceOnUse" gradientTransform="translate(13.6298 0.0410085) scale(5.01457)">
<stop offset="0.75" stop-color="white"/>
<stop offset="0.82" stop-color="#FAFAFA"/>
<stop offset="0.89" stop-color="#EEEEEE"/>
<stop offset="0.96" stop-color="#D9D9D9"/>
<stop offset="1" stop-color="#CCCCCC"/>
</radialGradient>
<radialGradient id="paint7_radial_3097_1916" cx="0" cy="0" r="1" gradientUnits="userSpaceOnUse" gradientTransform="translate(13.6297 0.0410157) scale(0.0410156)">
<stop stop-color="#705454"/>
<stop offset="0.27" stop-color="#674C4C"/>
<stop offset="0.71" stop-color="#4E3838"/>
<stop offset="1" stop-color="#3B2828"/>
</radialGradient>
<clipPath id="clip0_3097_1916">
<rect width="42" height="42" fill="white"/>
</clipPath>
</defs>
</svg>
