<svg width="42" height="42" viewBox="0 0 42 42" fill="none" xmlns="http://www.w3.org/2000/svg">
<g clip-path="url(#clip0_3097_1947)">
<path d="M21 42C32.598 42 42 32.598 42 21C42 9.40202 32.598 0 21 0C9.40202 0 0 9.40202 0 21C0 32.598 9.40202 42 21 42Z" fill="url(#paint0_linear_3097_1947)"/>
<path d="M12.8141 21.114H29.1851C30.4402 21.114 31.459 22.1328 31.459 23.3879V23.4281C31.459 29.1785 26.7906 33.8469 21.0402 33.8469H21C15.2275 33.8469 10.541 29.1605 10.541 23.3879C10.541 22.1328 11.5598 21.114 12.8149 21.114H12.8141Z" fill="url(#paint1_radial_3097_1947)"/>
<path d="M27.4624 31.6321C25.6921 33.0192 23.4625 33.8469 21.0385 33.8469H20.9983C18.5628 33.8469 16.3225 33.0151 14.5449 31.6189C16.0043 29.642 18.352 28.359 20.9983 28.359C23.6446 28.359 26.003 29.6469 27.4624 31.6321Z" fill="url(#paint2_linear_3097_1947)"/>
<path d="M30.3218 21.4192V22.0237C30.3218 23.5298 29.1004 24.7521 27.5934 24.7521H14.4061C12.8992 24.7521 11.6777 23.5298 11.6777 22.0237V21.4192C12.0124 21.2256 12.4004 21.1148 12.8147 21.1148H29.1857C29.5991 21.1148 29.9879 21.2256 30.3226 21.4192H30.3218Z" fill="url(#paint3_linear_3097_1947)"/>
<path d="M28.4111 19.1945C31.1805 19.1945 33.4256 16.9494 33.4256 14.1799C33.4256 11.4104 31.1805 9.16534 28.4111 9.16534C25.6416 9.16534 23.3965 11.4104 23.3965 14.1799C23.3965 16.9494 25.6416 19.1945 28.4111 19.1945Z" fill="url(#paint4_radial_3097_1947)"/>
<path d="M28.4109 17.4366C30.2095 17.4366 31.6676 15.9785 31.6676 14.1799C31.6676 12.3813 30.2095 10.9233 28.4109 10.9233C26.6123 10.9233 25.1543 12.3813 25.1543 14.1799C25.1543 15.9785 26.6123 17.4366 28.4109 17.4366Z" fill="url(#paint5_radial_3097_1947)"/>
<path d="M29.9886 14.2825C30.9164 14.2825 31.6686 13.5303 31.6686 12.6025C31.6686 11.6746 30.9164 10.9225 29.9886 10.9225C29.0608 10.9225 28.3086 11.6746 28.3086 12.6025C28.3086 13.5303 29.0608 14.2825 29.9886 14.2825Z" fill="white"/>
<path d="M13.6708 19.1945C16.4403 19.1945 18.6854 16.9494 18.6854 14.1799C18.6854 11.4104 16.4403 9.16534 13.6708 9.16534C10.9013 9.16534 8.65625 11.4104 8.65625 14.1799C8.65625 16.9494 10.9013 19.1945 13.6708 19.1945Z" fill="url(#paint6_radial_3097_1947)"/>
<path d="M13.6707 17.4366C15.4693 17.4366 16.9273 15.9785 16.9273 14.1799C16.9273 12.3813 15.4693 10.9233 13.6707 10.9233C11.8721 10.9233 10.4141 12.3813 10.4141 14.1799C10.4141 15.9785 11.8721 17.4366 13.6707 17.4366Z" fill="url(#paint7_radial_3097_1947)"/>
<path d="M15.2484 14.2825C16.1762 14.2825 16.9284 13.5303 16.9284 12.6025C16.9284 11.6746 16.1762 10.9225 15.2484 10.9225C14.3205 10.9225 13.5684 11.6746 13.5684 12.6025C13.5684 13.5303 14.3205 14.2825 15.2484 14.2825Z" fill="white"/>
<path d="M8.14467 7.47386C8.30873 8.40492 9.36693 8.87249 10.1635 8.36308C10.8903 7.89796 11.8246 7.44433 12.8959 7.25566C13.9672 7.06699 15.0008 7.17281 15.8425 7.36148C16.7653 7.5682 17.5996 6.76675 17.4355 5.8357C17.3601 5.40996 17.0836 5.04492 16.6907 4.86363C15.9163 4.50761 14.4537 4.06546 12.398 4.42722C10.3423 4.78898 9.1192 5.70609 8.51299 6.30492C8.20537 6.60925 8.07002 7.04648 8.14549 7.47304L8.14467 7.47386Z" fill="url(#paint8_linear_3097_1947)"/>
<path d="M33.8546 7.47386C33.6905 8.40492 32.6323 8.87249 31.8358 8.36308C31.109 7.89796 30.1747 7.44433 29.1033 7.25566C28.032 7.06699 26.9984 7.17281 26.1568 7.36148C25.2339 7.5682 24.3997 6.76675 24.5637 5.8357C24.6392 5.40996 24.9156 5.04492 25.3086 4.86363C26.0829 4.50761 27.5456 4.06546 29.6013 4.42722C31.657 4.7898 32.8801 5.70609 33.4863 6.30492C33.7939 6.60925 33.9292 7.04648 33.8538 7.47304L33.8546 7.47386Z" fill="url(#paint9_linear_3097_1947)"/>
</g>
<defs>
<linearGradient id="paint0_linear_3097_1947" x1="6.1507" y1="6.1507" x2="35.8493" y2="35.8493" gradientUnits="userSpaceOnUse">
<stop offset="0.1" stop-color="#FFF1AB"/>
<stop offset="0.4" stop-color="#FFDA24"/>
<stop offset="0.51" stop-color="#FFC81D"/>
<stop offset="0.74" stop-color="#FF9A0C"/>
<stop offset="0.9" stop-color="#FF7700"/>
</linearGradient>
<radialGradient id="paint1_radial_3097_1947" cx="0" cy="0" r="1" gradientUnits="userSpaceOnUse" gradientTransform="translate(20.9992 27.4805) scale(8.65758 8.65758)">
<stop stop-color="#614444"/>
<stop offset="0.38" stop-color="#583C3C"/>
<stop offset="1" stop-color="#402828"/>
</radialGradient>
<linearGradient id="paint2_linear_3097_1947" x1="21.0032" y1="33.8469" x2="21.0032" y2="28.359" gradientUnits="userSpaceOnUse">
<stop stop-color="#FF6A00"/>
<stop offset="0.99" stop-color="#FFA227"/>
</linearGradient>
<linearGradient id="paint3_linear_3097_1947" x1="20.9998" y1="24.7521" x2="20.9998" y2="21.114" gradientUnits="userSpaceOnUse">
<stop offset="0.65" stop-color="white"/>
<stop offset="0.75" stop-color="#F6F6F6"/>
<stop offset="0.9" stop-color="#DDDDDD"/>
<stop offset="1" stop-color="#CCCCCC"/>
</linearGradient>
<radialGradient id="paint4_radial_3097_1947" cx="0" cy="0" r="1" gradientUnits="userSpaceOnUse" gradientTransform="translate(28.4111 14.1799) scale(5.01457)">
<stop offset="0.75" stop-color="white"/>
<stop offset="0.82" stop-color="#FAFAFA"/>
<stop offset="0.89" stop-color="#EEEEEE"/>
<stop offset="0.96" stop-color="#D9D9D9"/>
<stop offset="1" stop-color="#CCCCCC"/>
</radialGradient>
<radialGradient id="paint5_radial_3097_1947" cx="0" cy="0" r="1" gradientUnits="userSpaceOnUse" gradientTransform="translate(28.4109 14.1799) scale(3.25664)">
<stop stop-color="#705454"/>
<stop offset="0.27" stop-color="#674C4C"/>
<stop offset="0.71" stop-color="#4E3838"/>
<stop offset="1" stop-color="#3B2828"/>
</radialGradient>
<radialGradient id="paint6_radial_3097_1947" cx="0" cy="0" r="1" gradientUnits="userSpaceOnUse" gradientTransform="translate(13.6708 0.0410083) scale(0.0410156)">
<stop offset="0.75" stop-color="white"/>
<stop offset="0.82" stop-color="#FAFAFA"/>
<stop offset="0.89" stop-color="#EEEEEE"/>
<stop offset="0.96" stop-color="#D9D9D9"/>
<stop offset="1" stop-color="#CCCCCC"/>
</radialGradient>
<radialGradient id="paint7_radial_3097_1947" cx="0" cy="0" r="1" gradientUnits="userSpaceOnUse" gradientTransform="translate(13.6707 0.0410137) scale(0.0410156)">
<stop stop-color="#705454"/>
<stop offset="0.27" stop-color="#674C4C"/>
<stop offset="0.71" stop-color="#4E3838"/>
<stop offset="1" stop-color="#3B2828"/>
</radialGradient>
<linearGradient id="paint8_linear_3097_1947" x1="12.7901" y1="8.57226" x2="12.7901" y2="4.29269" gradientUnits="userSpaceOnUse">
<stop stop-color="#3B2828"/>
<stop offset="1" stop-color="#705454"/>
</linearGradient>
<linearGradient id="paint9_linear_3097_1947" x1="29.2092" y1="8.57226" x2="29.2092" y2="4.29269" gradientUnits="userSpaceOnUse">
<stop stop-color="#3B2828"/>
<stop offset="1" stop-color="#705454"/>
</linearGradient>
<clipPath id="clip0_3097_1947">
<rect width="42" height="42" fill="white"/>
</clipPath>
</defs>
</svg>
