<svg width="41" height="44" viewBox="0 0 41 44" fill="none" xmlns="http://www.w3.org/2000/svg">
<path d="M32.8213 4.72226H36.5461C38.1553 4.72226 39.4596 6.02026 39.4596 7.62185V32.9468L29.3589 42.9994H3.91353C2.30434 42.9994 1 41.7014 1 40.0998V7.62185C1 6.02026 2.30434 4.72226 3.91353 4.72226H7.46973" stroke="#002D72" stroke-width="1.5" stroke-linecap="round" stroke-linejoin="round"/>
<path d="M11.2725 4.72226H29.3564" stroke="#002D72" stroke-width="1.5" stroke-linecap="round" stroke-linejoin="round"/>
<path d="M11.4121 11.9234C20.822 11.9443 30.1172 11.9443 39.4605 11.9234" stroke="#002D72" stroke-width="1.5" stroke-linecap="round" stroke-linejoin="round"/>
<path d="M1 11.9234C3.15996 11.9443 5.35731 11.9443 7.57874 11.9234" stroke="#002D72" stroke-width="1.5" stroke-linecap="round" stroke-linejoin="round"/>
<path d="M9.41773 8.24612H9.40949C8.47149 8.24612 7.71094 7.48557 7.71094 6.54756V2.69856C7.71094 1.76055 8.47149 1 9.40949 1H9.41773C10.3557 1 11.1163 1.76055 11.1163 2.69856V6.54756C11.1163 7.48557 10.3557 8.24612 9.41773 8.24612Z" stroke="#002D72" stroke-width="1.5" stroke-linecap="round" stroke-linejoin="round"/>
<path d="M31.0505 8.24612H31.0423C30.1043 8.24612 29.3438 7.48557 29.3438 6.54756V2.69856C29.3438 1.76055 30.1043 1 31.0423 1H31.0505C31.9886 1 32.7491 1.76055 32.7491 2.69856V6.54756C32.7491 7.48557 31.9886 8.24612 31.0505 8.24612Z" stroke="#002D72" stroke-width="1.5" stroke-linecap="round" stroke-linejoin="round"/>
<path d="M29.3594 43V35.847C29.3594 34.2455 30.6637 32.9474 32.2729 32.9474H39.4601L29.3594 43Z" stroke="#002D72" stroke-width="1.5" stroke-linecap="round" stroke-linejoin="round"/>
<path d="M28.2231 30.6753C29.6111 28.9882 30.629 26.9531 30.6607 24.5998C30.7057 21.2629 28.2218 18.5579 25.2139 18.5579C22.988 18.5579 21.0746 20.0391 20.2297 22.161C19.3849 20.0391 17.4709 18.5579 15.2456 18.5579C12.2377 18.5579 9.79883 21.2629 9.79883 24.5998C9.79883 32.2376 20.2297 36.4561 20.2297 36.4561C20.2297 36.4561 23.071 35.2792 25.7881 33.0666" stroke="#002D72" stroke-width="1.5" stroke-linecap="round" stroke-linejoin="round"/>
</svg>
