<svg width="42" height="42" viewBox="0 0 42 42" fill="none" xmlns="http://www.w3.org/2000/svg">
<path d="M32.2227 41.5898H9.7773C8.94673 41.5889 8.15044 41.2585 7.56313 40.6712C6.97582 40.0839 6.64546 39.2876 6.64453 38.4571V15.928C6.64453 15.7975 6.69639 15.6723 6.78869 15.58C6.88099 15.4877 7.00618 15.4358 7.13672 15.4358C7.26725 15.4358 7.39244 15.4877 7.48475 15.58C7.57705 15.6723 7.62891 15.7975 7.62891 15.928V38.4571C7.62956 39.0267 7.85612 39.5727 8.25888 39.9755C8.66164 40.3783 9.20771 40.6048 9.7773 40.6055H32.2227C32.7923 40.6048 33.3384 40.3783 33.7411 39.9755C34.1439 39.5727 34.3704 39.0267 34.3711 38.4571V9.07347C34.3706 8.50377 34.1441 7.95754 33.7413 7.55463C33.3385 7.15171 32.7924 6.92501 32.2227 6.92426H27.8855C28.162 7.29161 28.3306 7.72873 28.3725 8.18658C28.4144 8.64444 28.3279 9.10491 28.1227 9.51635C27.9176 9.92779 27.6018 10.2739 27.2109 10.5159C26.8199 10.7579 26.3693 10.8862 25.9095 10.8864H16.0904C15.6305 10.8866 15.1797 10.7585 14.7885 10.5165C14.3974 10.2745 14.0816 9.92823 13.8765 9.51656C13.6715 9.10489 13.5853 8.64417 13.6277 8.18622C13.6702 7.72826 13.8395 7.29123 14.1168 6.92426H9.7773C9.2076 6.925 8.66145 7.1517 8.25869 7.55462C7.85592 7.95754 7.62943 8.50377 7.62891 9.07347V12.0889C7.62891 12.2195 7.57705 12.3447 7.48475 12.437C7.39244 12.5293 7.26725 12.5811 7.13672 12.5811C7.00618 12.5811 6.88099 12.5293 6.78869 12.437C6.69639 12.3447 6.64453 12.2195 6.64453 12.0889V9.07347C6.64535 8.24279 6.97565 7.44635 7.56296 6.85889C8.15027 6.27143 8.94662 5.94092 9.7773 5.93988H16.0904C16.221 5.93988 16.3462 5.99174 16.4385 6.08404C16.5308 6.17634 16.5826 6.30153 16.5826 6.43207C16.5826 6.5626 16.5308 6.68779 16.4385 6.7801C16.3462 6.8724 16.221 6.92426 16.0904 6.92426C15.6956 6.92426 15.3169 7.08112 15.0376 7.36033C14.7584 7.63955 14.6016 8.01825 14.6016 8.41312C14.6016 8.80799 14.7584 9.18669 15.0376 9.46591C15.3169 9.74513 15.6956 9.90199 16.0904 9.90199H25.9096C26.3044 9.90199 26.6831 9.74513 26.9624 9.46591C27.2416 9.18669 27.3984 8.80799 27.3984 8.41312C27.3984 8.01825 27.2416 7.63955 26.9624 7.36033C26.6831 7.08112 26.3044 6.92426 25.9096 6.92426C25.779 6.92426 25.6538 6.8724 25.5615 6.7801C25.4692 6.68779 25.4174 6.5626 25.4174 6.43207C25.4174 6.30153 25.4692 6.17634 25.5615 6.08404C25.6538 5.99174 25.779 5.93988 25.9096 5.93988H32.2227C33.0534 5.94092 33.8497 6.27143 34.437 6.85889C35.0243 7.44635 35.3546 8.24279 35.3555 9.07347V38.4571C35.3545 39.2876 35.0242 40.0839 34.4369 40.6712C33.8496 41.2585 33.0533 41.5889 32.2227 41.5898Z" fill="#002D72"/>
<path d="M7.13672 14.8698C7.00618 14.8698 6.88099 14.818 6.78869 14.7257C6.69639 14.6333 6.64453 14.5082 6.64453 14.3776V13.6393C6.64453 13.5088 6.69639 13.3836 6.78869 13.2913C6.88099 13.199 7.00618 13.1472 7.13672 13.1472C7.26725 13.1472 7.39244 13.199 7.48475 13.2913C7.57705 13.3836 7.62891 13.5088 7.62891 13.6393V14.3776C7.62891 14.5082 7.57705 14.6333 7.48475 14.7257C7.39244 14.818 7.26725 14.8698 7.13672 14.8698Z" fill="#002D72"/>
<path d="M29.7469 39.1141H12.2529C11.4222 39.1131 10.6259 38.7826 10.0385 38.1951C9.45124 37.6077 9.12094 36.8112 9.12012 35.9806V11.5492C9.12105 10.7186 9.45141 9.92232 10.0387 9.33501C10.626 8.74771 11.4223 8.41735 12.2529 8.41641H14.1716C14.2808 8.41642 14.3869 8.45275 14.4732 8.51967C14.5595 8.58659 14.6211 8.6803 14.6483 8.78607C14.731 9.10559 14.9175 9.38858 15.1785 9.59058C15.4395 9.79257 15.7603 9.90211 16.0903 9.902H25.9095C26.2396 9.9023 26.5604 9.7928 26.8215 9.59074C27.0826 9.38868 27.2691 9.10554 27.3516 8.78588C27.3788 8.68016 27.4404 8.5865 27.5267 8.51961C27.6129 8.45273 27.719 8.41643 27.8282 8.41642H29.7469C30.5775 8.41736 31.3737 8.74772 31.961 9.33502C32.5484 9.92233 32.8787 10.7186 32.8796 11.5492V35.9806C32.8788 36.8112 32.5485 37.6077 31.9612 38.1951C31.3739 38.7826 30.5776 39.1131 29.7469 39.1141ZM12.2529 9.40079C11.6833 9.40142 11.1372 9.62798 10.7344 10.0307C10.3317 10.4335 10.1051 10.9796 10.1045 11.5492V35.9806C10.105 36.5503 10.3315 37.0965 10.7343 37.4994C11.137 37.9023 11.6832 38.129 12.2529 38.1298H29.7469C30.3166 38.129 30.8627 37.9023 31.2655 37.4994C31.6682 37.0965 31.8947 36.5503 31.8953 35.9806V11.5492C31.8946 10.9796 31.6681 10.4335 31.2653 10.0308C30.8625 9.628 30.3165 9.40144 29.7469 9.40079H28.1779C27.9856 9.84243 27.6684 10.2183 27.2655 10.4822C26.8625 10.7461 26.3912 10.8866 25.9095 10.8864H16.0903C15.6087 10.8864 15.1375 10.7458 14.7346 10.4819C14.3317 10.218 14.0145 9.8423 13.8221 9.40079H12.2529Z" fill="#002D72"/>
<path d="M25.91 10.8862H16.0906C15.4355 10.8851 14.8076 10.624 14.3448 10.1603C13.882 9.69665 13.6221 9.06829 13.6221 8.41317C13.6221 7.75805 13.882 7.1297 14.3448 6.66604C14.8076 6.20237 15.4355 5.94129 16.0906 5.9401H16.6782C16.5154 5.28393 16.5042 4.5993 16.6453 3.93812C16.7864 3.27695 17.0762 2.65658 17.4928 2.12407C17.9093 1.59156 18.4416 1.16088 19.0494 0.864681C19.6571 0.568485 20.3243 0.414551 21.0003 0.414551C21.6764 0.414551 22.3436 0.568485 22.9513 0.864681C23.5591 1.16088 24.0914 1.59156 24.5079 2.12407C24.9245 2.65658 25.2143 3.27695 25.3554 3.93812C25.4965 4.5993 25.4853 5.28393 25.3224 5.9401H25.91C26.5652 5.94129 27.193 6.20237 27.6559 6.66604C28.1187 7.1297 28.3786 7.75805 28.3786 8.41317C28.3786 9.06829 28.1187 9.69665 27.6559 10.1603C27.193 10.624 26.5652 10.8851 25.91 10.8862ZM16.0906 6.92447C15.6964 6.9254 15.3187 7.08265 15.0402 7.36174C14.7618 7.64082 14.6054 8.01895 14.6054 8.41317C14.6054 8.8074 14.7618 9.18552 15.0402 9.46461C15.3187 9.74369 15.6964 9.90095 16.0906 9.90187H25.91C26.3043 9.90095 26.682 9.74369 26.9605 9.46461C27.2389 9.18552 27.3953 8.8074 27.3953 8.41317C27.3953 8.01895 27.2389 7.64082 26.9605 7.36174C26.682 7.08265 26.3043 6.9254 25.91 6.92447H24.6382C24.5567 6.92447 24.4764 6.9042 24.4047 6.8655C24.3329 6.82679 24.2719 6.77086 24.2271 6.70273C24.1822 6.6346 24.1551 6.55641 24.148 6.47517C24.1409 6.39394 24.1541 6.31221 24.1863 6.23734C24.4136 5.70966 24.5061 5.1338 24.4558 4.5615C24.4054 3.98919 24.2137 3.43835 23.8978 2.95845C23.582 2.47855 23.1519 2.08463 22.6461 1.81204C22.1404 1.53946 21.5749 1.39676 21.0003 1.39676C20.4258 1.39676 19.8603 1.53946 19.3546 1.81204C18.8488 2.08463 18.4187 2.47855 18.1029 2.95845C17.787 3.43835 17.5953 3.98919 17.5449 4.5615C17.4946 5.1338 17.5871 5.70966 17.8143 6.23734C17.8466 6.31221 17.8598 6.39394 17.8527 6.47517C17.8456 6.55641 17.8184 6.6346 17.7736 6.70273C17.7288 6.77086 17.6678 6.82679 17.596 6.8655C17.5243 6.9042 17.444 6.92447 17.3624 6.92447H16.0906Z" fill="#002D72"/>
<path d="M20.7224 31.721C20.4376 31.723 20.1552 31.6688 19.8913 31.5615C19.6275 31.4542 19.3875 31.2959 19.1849 31.0956C18.9824 30.8954 18.8213 30.6572 18.711 30.3946C18.6006 30.1321 18.5432 29.8503 18.5419 29.5655C18.5406 29.2807 18.5955 28.9984 18.7035 28.7349C18.8115 28.4713 18.9704 28.2317 19.1711 28.0296C19.3719 27.8276 19.6105 27.6671 19.8733 27.5574C20.1362 27.4478 20.4181 27.391 20.7029 27.3905C20.9909 27.386 21.2768 27.4392 21.5439 27.5469C21.811 27.6546 22.0538 27.8146 22.2581 28.0176C22.4668 28.2142 22.6324 28.452 22.7444 28.7159C22.8564 28.9799 22.9122 29.2642 22.9085 29.5509C22.9121 29.837 22.857 30.1208 22.7466 30.3848C22.6361 30.6488 22.4727 30.8873 22.2664 31.0856C22.0654 31.2904 21.8249 31.4524 21.5595 31.5616C21.2941 31.6708 21.0093 31.725 20.7224 31.721ZM20.7029 28.3748C20.5486 28.3747 20.3958 28.4051 20.2532 28.4642C20.1107 28.5233 19.9812 28.61 19.8723 28.7192C19.7633 28.8285 19.677 28.9582 19.6184 29.1009C19.5597 29.2437 19.5298 29.3966 19.5303 29.5509C19.5266 29.707 19.5556 29.8622 19.6155 30.0064C19.6754 30.1507 19.7649 30.2808 19.8781 30.3884C19.9871 30.5016 20.1185 30.5909 20.2638 30.6509C20.4091 30.7108 20.5652 30.74 20.7224 30.7366C20.8806 30.7398 21.0378 30.7103 21.1841 30.6501C21.3305 30.5899 21.4629 30.5003 21.5732 30.3867C21.6871 30.2799 21.7773 30.1502 21.8378 30.0062C21.8982 29.8622 21.9277 29.707 21.9241 29.5509C21.9277 29.3958 21.8981 29.2417 21.8373 29.0989C21.7765 28.9562 21.6859 28.828 21.5717 28.7231C21.4579 28.6093 21.3223 28.5198 21.173 28.46C21.0236 28.4001 20.8637 28.3711 20.7029 28.3748ZM21.5556 27.2627H19.7782C19.5328 27.2612 19.2975 27.1644 19.1221 26.9927C18.9467 26.821 18.8449 26.5878 18.8382 26.3425C18.8381 26.3388 18.8381 26.3352 18.8381 26.3315C18.8275 25.4457 19.0047 24.5677 19.3579 23.7553C19.7036 22.9809 20.2666 22.2492 21.0313 21.5807C21.9133 20.8051 22.1315 20.5253 22.1844 20.441C22.2814 20.2786 22.3296 20.0916 22.3233 19.9025C22.3233 19.6339 22.214 19.4176 21.9795 19.2221C21.7211 19.0068 21.3671 18.9021 20.8977 18.9021C20.4244 18.9021 20.0525 19.0326 19.761 19.301C19.6261 19.4224 19.5189 19.5715 19.4468 19.7382C19.3185 20.048 19.1019 20.3134 18.824 20.5012C18.5461 20.689 18.2192 20.7911 17.8838 20.7947H17.8067C17.5126 20.7945 17.2232 20.7211 16.9646 20.5811C16.706 20.441 16.4864 20.2388 16.3255 19.9926C16.1646 19.7464 16.0676 19.464 16.0432 19.171C16.0188 18.8779 16.0678 18.5834 16.1857 18.314C16.434 17.7559 16.793 17.2541 17.2409 16.8389C18.2006 15.9364 19.4702 15.4788 21.0145 15.4788C22.0058 15.4788 22.869 15.6685 23.5801 16.0427C24.2988 16.4204 24.8991 16.9893 25.315 17.6865C25.7373 18.3667 25.9625 19.1507 25.9655 19.9513C25.965 20.3887 25.8941 20.8233 25.7553 21.2382C25.5997 21.687 25.3828 22.1121 25.1108 22.5016C24.9296 22.7666 24.5503 23.1596 23.9168 23.7388C23.2169 24.3755 22.9991 24.6386 22.9314 24.7387C22.7974 24.9552 22.6983 25.1913 22.6376 25.4385C22.5601 25.7507 22.5117 26.0695 22.4932 26.3906C22.4747 26.6271 22.368 26.8479 22.1943 27.0094C22.0207 27.1709 21.7927 27.2613 21.5556 27.2627ZM19.8227 26.2783H21.5146C21.538 25.9061 21.5964 25.537 21.6889 25.1757C21.7768 24.8254 21.921 24.4917 22.1157 24.1876C22.2217 24.0307 22.455 23.7378 23.2533 23.0115C23.9505 22.3741 24.2062 22.0805 24.2978 21.9466C24.5182 21.6325 24.6943 21.2896 24.8212 20.9275C24.9266 20.6128 24.9805 20.2832 24.981 19.9513C24.9797 19.3303 24.8036 18.7222 24.4729 18.1966C24.1511 17.6512 23.683 17.2069 23.1217 16.9139C22.5534 16.6149 21.8443 16.4632 21.0144 16.4632C19.7109 16.4632 18.6971 16.8207 17.9151 17.5561C17.5639 17.8806 17.2821 18.2731 17.087 18.7097C17.0349 18.8293 17.0133 18.9599 17.0242 19.0899C17.0351 19.2199 17.0782 19.3451 17.1496 19.4543C17.221 19.5635 17.3184 19.6532 17.4331 19.7154C17.5478 19.7775 17.6762 19.8102 17.8066 19.8103H17.8837C18.0263 19.8065 18.1647 19.7609 18.2817 19.6792C18.3987 19.5975 18.4892 19.4832 18.5419 19.3506C18.6689 19.0564 18.8572 18.7926 19.094 18.5769C19.5692 18.1395 20.1759 17.9177 20.8976 17.9177C21.5969 17.9177 22.1729 18.1021 22.6096 18.4658C22.8269 18.637 23.0026 18.8552 23.1235 19.1041C23.2444 19.3529 23.3073 19.6259 23.3076 19.9025C23.3142 20.2766 23.2138 20.6448 23.0183 20.9639C22.9101 21.1365 22.6537 21.4648 21.6802 22.3208C21.0226 22.8959 20.5439 23.5132 20.2567 24.1566C19.9669 24.8262 19.8191 25.5487 19.8227 26.2783Z" fill="#002D72"/>
</svg>
