<svg width="42" height="42" viewBox="0 0 42 42" fill="none" xmlns="http://www.w3.org/2000/svg">
<g clip-path="url(#clip0_3097_1870)">
<path d="M21.0005 0C20.2444 0 19.6309 0.613019 19.6309 1.36959V4.1087C19.6309 4.86527 20.2444 5.47829 21.0005 5.47829C21.7565 5.47829 22.37 4.86527 22.37 4.1087V1.36959C22.37 0.613019 21.7565 0 21.0005 0Z" fill="#E40046"/>
<path d="M4.56475 19.1739H1.82565C1.06957 19.1739 0.456055 19.7874 0.456055 20.5435C0.456055 21.2996 1.06957 21.9131 1.82565 21.9131H4.56475C5.32084 21.9131 5.93435 21.2996 5.93435 20.5435C5.93435 19.7874 5.32084 19.1739 4.56475 19.1739Z" fill="#E40046"/>
<path d="M40.1741 19.1739H37.435C36.6789 19.1739 36.0654 19.7874 36.0654 20.5435C36.0654 21.2996 36.6789 21.9131 37.435 21.9131H40.1741C40.9302 21.9131 41.5437 21.2996 41.5437 20.5435C41.5437 19.7874 40.9302 19.1739 40.1741 19.1739Z" fill="#E40046"/>
<path d="M35.5263 6.01725C34.9914 5.48224 34.1247 5.48274 33.5897 6.01676L31.6522 7.95344C31.1172 8.48836 31.1172 9.35551 31.6522 9.89052C31.9197 10.158 32.2701 10.2918 32.6205 10.2918C32.9709 10.2918 33.3213 10.158 33.5888 9.89101L35.5263 7.95434C36.0614 7.41941 36.0614 6.55226 35.5263 6.01725Z" fill="#E40046"/>
<path d="M10.3475 7.95344L8.41005 6.01676C7.87513 5.48265 7.00839 5.48233 6.47346 6.01725C5.93853 6.55218 5.93853 7.41933 6.47346 7.95434L8.41104 9.89101C8.67854 10.1581 9.02898 10.2918 9.37933 10.2918C9.72969 10.2918 10.0802 10.158 10.3476 9.89052C10.8825 9.3556 10.8825 8.48853 10.3475 7.95344Z" fill="#E40046"/>
<path d="M34.6955 35.6087H7.30416C6.54784 35.6087 5.93457 36.2219 5.93457 36.9783V40.6305C5.93457 41.3868 6.54775 42.0001 7.30416 42.0001H34.6955C35.4518 42.0001 36.0651 41.3869 36.0651 40.6305V36.9783C36.065 36.2219 35.4518 35.6087 34.6955 35.6087Z" fill="#E40046"/>
<path d="M20.9999 8.21741C14.203 8.21741 8.67383 13.7466 8.67383 20.5435V32.8696H33.326V20.5435C33.326 13.7465 27.7969 8.21741 20.9999 8.21741ZM26.4782 21.913C25.7221 21.913 25.1086 21.2995 25.1086 20.5434C25.1086 18.2778 23.2655 16.4347 20.9999 16.4347C20.2438 16.4347 19.6303 15.8212 19.6303 15.0651C19.6303 14.309 20.2438 13.6955 20.9999 13.6955C24.776 13.6955 27.8477 16.7673 27.8477 20.5433C27.8477 21.2996 27.2343 21.913 26.4782 21.913Z" fill="#E40046"/>
</g>
<defs>
<clipPath id="clip0_3097_1870">
<rect width="42" height="42" fill="white"/>
</clipPath>
</defs>
</svg>
