<?xml version="1.0" encoding="UTF-8"?> <svg xmlns="http://www.w3.org/2000/svg" width="36" height="36" viewBox="0 0 36 36" fill="none"><mask id="mask0_1_98" style="mask-type:alpha" maskUnits="userSpaceOnUse" x="0" y="0" width="36" height="36"><path fill-rule="evenodd" clip-rule="evenodd" d="M0 18C0 8.05888 8.05888 0 18 0C27.9411 0 36 8.05888 36 18C36 27.9411 27.9411 36 18 36C8.05888 36 0 27.9411 0 18Z" fill="white"></path></mask><g mask="url(#mask0_1_98)"><path fill-rule="evenodd" clip-rule="evenodd" d="M0 18C0 8.05887 8.05887 0 18 0C27.9411 0 36 8.05887 36 18C36 27.9411 27.9411 36 18 36C8.05887 36 0 27.9411 0 18Z" fill="#E40046"></path><path fill-rule="evenodd" clip-rule="evenodd" d="M18.0001 8.39941C15.3929 8.39941 15.0657 8.41081 14.0417 8.45741C13.0197 8.50422 12.3221 8.66602 11.7117 8.90342C11.0803 9.14862 10.5447 9.47663 10.011 10.0104C9.47704 10.544 9.14904 11.0796 8.90304 11.7108C8.66503 12.3215 8.50303 13.0193 8.45703 14.0409C8.41123 15.0649 8.39923 15.3923 8.39923 17.9995C8.39923 20.6067 8.41083 20.9329 8.45723 21.957C8.50423 22.979 8.66603 23.6766 8.90324 24.287C9.14864 24.9184 9.47664 25.454 10.0104 25.9876C10.5439 26.5216 11.0795 26.8504 11.7105 27.0956C12.3213 27.333 13.0191 27.4948 14.0409 27.5416C15.0649 27.5882 15.3919 27.5996 17.9989 27.5996C20.6064 27.5996 20.9326 27.5882 21.9566 27.5416C22.9786 27.4948 23.677 27.333 24.2878 27.0956C24.919 26.8504 25.4538 26.5216 25.9872 25.9876C26.5212 25.454 26.8492 24.9184 27.0952 24.2872C27.3312 23.6766 27.4932 22.9788 27.5412 21.9572C27.5872 20.9331 27.5992 20.6067 27.5992 17.9995C27.5992 15.3923 27.5872 15.0651 27.5412 14.0411C27.4932 13.0191 27.3312 12.3215 27.0952 11.711C26.8492 11.0796 26.5212 10.544 25.9872 10.0104C25.4532 9.47643 24.9192 9.14842 24.2872 8.90342C23.6752 8.66602 22.9772 8.50422 21.9552 8.45741C20.9312 8.41081 20.6052 8.39941 17.9971 8.39941H18.0001ZM17.1406 10.1303C17.3962 10.1299 17.6815 10.1303 18.0019 10.1303C20.5651 10.1303 20.8689 10.1395 21.8811 10.1855C22.8171 10.2283 23.3251 10.3847 23.6635 10.5161C24.1115 10.6901 24.4309 10.8981 24.7667 11.2341C25.1027 11.5701 25.3107 11.8901 25.4851 12.3382C25.6165 12.6762 25.7731 13.1842 25.8157 14.1202C25.8617 15.1322 25.8717 15.4362 25.8717 17.9982C25.8717 20.5602 25.8617 20.8642 25.8157 21.8763C25.7729 22.8123 25.6165 23.3203 25.4851 23.6583C25.3111 24.1063 25.1027 24.4253 24.7667 24.7611C24.4307 25.0971 24.1117 25.3051 23.6635 25.4791C23.3255 25.6111 22.8171 25.7671 21.8811 25.8099C20.8691 25.8559 20.5651 25.8659 18.0019 25.8659C15.4384 25.8659 15.1346 25.8559 14.1226 25.8099C13.1866 25.7667 12.6786 25.6103 12.34 25.4789C11.892 25.3049 11.572 25.0969 11.236 24.7609C10.9 24.4249 10.692 24.1057 10.5176 23.6575C10.3862 23.3195 10.2296 22.8115 10.187 21.8755C10.141 20.8634 10.1318 20.5594 10.1318 17.9958C10.1318 15.4322 10.141 15.1298 10.187 14.1178C10.2298 13.1818 10.3862 12.6738 10.5176 12.3354C10.6916 11.8873 10.9 11.5673 11.236 11.2313C11.572 10.8953 11.892 10.6873 12.34 10.5129C12.6784 10.3809 13.1866 10.2249 14.1226 10.1819C15.0082 10.1419 15.3514 10.1299 17.1406 10.1279V10.1303ZM23.1255 11.725C22.4895 11.725 21.9735 12.2404 21.9735 12.8766C21.9735 13.5126 22.4895 14.0286 23.1255 14.0286C23.7615 14.0286 24.2775 13.5126 24.2775 12.8766C24.2775 12.2406 23.7615 11.7246 23.1255 11.7246V11.725ZM18.0004 13.0708C15.2778 13.0708 13.0703 15.2782 13.0703 18.0009C13.0703 20.7235 15.2778 22.9299 18.0004 22.9299C20.723 22.9299 22.9296 20.7235 22.9296 18.0009C22.9296 15.2782 20.7228 13.0708 18.0002 13.0708H18.0004ZM18.0017 14.8008C19.7689 14.8008 21.2018 16.2334 21.2018 18.0008C21.2018 19.768 19.7689 21.2008 18.0017 21.2008C16.2343 21.2008 14.8017 19.768 14.8017 18.0008C14.8017 16.2334 16.2343 14.8008 18.0017 14.8008Z" fill="#0C2448"></path></g></svg> 