<?xml version="1.0" encoding="UTF-8"?> <svg xmlns="http://www.w3.org/2000/svg" width="36" height="36" viewBox="0 0 36 36" fill="none"><path fill-rule="evenodd" clip-rule="evenodd" d="M0 18C0 8.05888 8.05888 0 18 0C27.9411 0 36 8.05888 36 18C36 27.9411 27.9411 36 18 36C8.05888 36 0 27.9411 0 18Z" fill="#E40046"></path><path fill-rule="evenodd" clip-rule="evenodd" d="M17.4618 14.6285L17.4996 15.2513L16.8701 15.1751C14.5786 14.8827 12.5767 13.8912 10.8769 12.2261L10.0459 11.3999L9.8319 12.01C9.37863 13.3701 9.66822 14.8064 10.6125 15.7725C11.1161 16.3063 11.0028 16.3826 10.1341 16.0648C9.8319 15.9631 9.56749 15.8869 9.54231 15.925C9.45418 16.014 9.75635 17.1707 9.99558 17.6283C10.3229 18.2638 10.9902 18.8867 11.7205 19.2553L12.3374 19.5476L11.6072 19.5604C10.9021 19.5604 10.8769 19.5731 10.9525 19.84C11.2043 20.6662 12.1989 21.5433 13.3069 21.9246L14.0875 22.1915L13.4076 22.5983C12.4004 23.183 11.2169 23.5135 10.0333 23.5389C9.46677 23.5516 9.00092 23.6025 9.00092 23.6406C9.00092 23.7677 10.537 24.4795 11.4309 24.7592C14.1127 25.5854 17.2981 25.2295 19.6904 23.8186C21.3901 22.8144 23.0898 20.8187 23.883 18.8867C24.3111 17.8571 24.7392 15.9758 24.7392 15.0734C24.7392 14.4887 24.777 14.4124 25.482 13.7133C25.8975 13.3065 26.2878 12.8616 26.3634 12.7345C26.4893 12.493 26.4767 12.493 25.8346 12.7091C24.7644 13.0904 24.6133 13.0396 25.1421 12.4676C25.5324 12.0608 25.9983 11.3236 25.9983 11.1075C25.9983 11.0694 25.8094 11.1329 25.5954 11.2473C25.3687 11.3745 24.8651 11.5651 24.4874 11.6795L23.8075 11.8956L23.1906 11.4761C22.8506 11.2473 22.3722 10.9931 22.1203 10.9169C21.4782 10.7389 20.4962 10.7643 19.917 10.9677C18.3432 11.5397 17.3485 13.0142 17.4618 14.6285Z" fill="#0C2448"></path></svg> 