<svg width="42" height="42" viewBox="0 0 42 42" fill="none" xmlns="http://www.w3.org/2000/svg">
<path d="M4.26562 9.1875C4.39616 9.1875 4.52135 9.13564 4.61365 9.04334C4.70596 8.95104 4.75781 8.82585 4.75781 8.69531V8.53125C4.75781 8.40071 4.70596 8.27552 4.61365 8.18322C4.52135 8.09092 4.39616 8.03906 4.26562 8.03906C4.13509 8.03906 4.0099 8.09092 3.9176 8.18322C3.82529 8.27552 3.77344 8.40071 3.77344 8.53125V8.69531C3.77344 8.82585 3.82529 8.95104 3.9176 9.04334C4.0099 9.13564 4.13509 9.1875 4.26562 9.1875Z" fill="#002D72"/>
<path d="M3.77344 17.8828C3.77344 18.0133 3.82529 18.1385 3.9176 18.2308C4.0099 18.3231 4.13509 18.375 4.26562 18.375C4.39616 18.375 4.52135 18.3231 4.61365 18.2308C4.70596 18.1385 4.75781 18.0133 4.75781 17.8828V10.3359C4.75781 10.2054 4.70596 10.0802 4.61365 9.98791C4.52135 9.89561 4.39616 9.84375 4.26562 9.84375C4.13509 9.84375 4.0099 9.89561 3.9176 9.98791C3.82529 10.0802 3.77344 10.2054 3.77344 10.3359V17.8828Z" fill="#002D72"/>
<path d="M6.31641 27.3219C6.31641 27.5938 6.57595 27.8086 6.8478 27.8086H12.1415C12.2058 27.8092 12.2696 27.797 12.3292 27.7729C12.3887 27.7487 12.4429 27.7129 12.4886 27.6677C12.5343 27.6224 12.5706 27.5685 12.5953 27.5092C12.6201 27.4499 12.6328 27.3862 12.6328 27.3219V26.4505C12.6328 26.3199 12.581 26.1948 12.4887 26.1025C12.3964 26.0102 12.2712 25.9583 12.1406 25.9583C12.0101 25.9583 11.8849 26.0102 11.7926 26.1025C11.7003 26.1948 11.6484 26.3199 11.6484 26.4505V26.8242H7.30078V22.5586H11.2173C11.3478 22.5586 11.473 22.5067 11.5653 22.4144C11.6576 22.3221 11.7095 22.1969 11.7095 22.0664C11.7095 21.9359 11.6576 21.8107 11.5653 21.7184C11.473 21.6261 11.3478 21.5742 11.2173 21.5742H6.8478C6.57595 21.5742 6.31641 21.7563 6.31641 22.0282V27.3219Z" fill="#002D72"/>
<path d="M12.2839 22.9984L10.3192 24.6459L9.64769 23.9744C9.60211 23.9281 9.54782 23.8913 9.48795 23.8661C9.42807 23.8409 9.36379 23.8277 9.29882 23.8275C9.23385 23.8272 9.16947 23.8398 9.1094 23.8646C9.04932 23.8893 8.99474 23.9257 8.9488 23.9717C8.90287 24.0176 8.86648 24.0722 8.84175 24.1323C8.81701 24.1924 8.80442 24.2568 8.80469 24.3217C8.80496 24.3867 8.8181 24.451 8.84333 24.5108C8.86857 24.5707 8.90541 24.625 8.95173 24.6706L9.94185 25.6608C10.0289 25.7478 10.1454 25.7991 10.2684 25.8045C10.3914 25.8099 10.512 25.769 10.6063 25.6899L12.9168 23.7528C13.0169 23.6689 13.0795 23.5488 13.091 23.4187C13.1025 23.2886 13.0618 23.1593 12.9779 23.0593C12.8941 22.9592 12.7739 22.8965 12.6438 22.8851C12.5138 22.8736 12.3845 22.9143 12.2844 22.9981L12.2839 22.9984Z" fill="#002D72"/>
<path d="M15.2197 23.9531H22.5565C22.6871 23.9531 22.8122 23.9013 22.9045 23.809C22.9969 23.7167 23.0487 23.5915 23.0487 23.4609C23.0487 23.3304 22.9969 23.2052 22.9045 23.1129C22.8122 23.0206 22.6871 22.9688 22.5565 22.9688H15.2197C15.0892 22.9688 14.964 23.0206 14.8717 23.1129C14.7794 23.2052 14.7275 23.3304 14.7275 23.4609C14.7275 23.5915 14.7794 23.7167 14.8717 23.809C14.964 23.9013 15.0892 23.9531 15.2197 23.9531Z" fill="#002D72"/>
<path d="M15.2197 26.332H26.345C26.4755 26.332 26.6007 26.2802 26.693 26.1879C26.7853 26.0956 26.8372 25.9704 26.8372 25.8398C26.8372 25.7093 26.7853 25.5841 26.693 25.4918C26.6007 25.3995 26.4755 25.3477 26.345 25.3477H15.2197C15.0892 25.3477 14.964 25.3995 14.8717 25.4918C14.7794 25.5841 14.7275 25.7093 14.7275 25.8398C14.7275 25.9704 14.7794 26.0956 14.8717 26.1879C14.964 26.2802 15.0892 26.332 15.2197 26.332Z" fill="#002D72"/>
<path d="M6.31641 36.75C6.31641 36.8805 6.36826 37.0057 6.46056 37.098C6.55287 37.1903 6.67806 37.2422 6.80859 37.2422H12.1406C12.2712 37.2422 12.3964 37.1903 12.4887 37.098C12.581 37.0057 12.6328 36.8805 12.6328 36.75V31.418C12.6328 31.2874 12.581 31.1622 12.4887 31.0699C12.3964 30.9776 12.2712 30.9258 12.1406 30.9258H6.80859C6.67806 30.9258 6.55287 30.9776 6.46056 31.0699C6.36826 31.1622 6.31641 31.2874 6.31641 31.418V36.75ZM7.30078 31.9102H11.6484V36.2578H7.30078V31.9102Z" fill="#002D72"/>
<path d="M15.2197 33.3867H22.5565C22.6871 33.3867 22.8122 33.3349 22.9045 33.2426C22.9969 33.1503 23.0487 33.0251 23.0487 32.8945C23.0487 32.764 22.9969 32.6388 22.9045 32.5465C22.8122 32.4542 22.6871 32.4023 22.5565 32.4023H15.2197C15.0892 32.4023 14.964 32.4542 14.8717 32.5465C14.7794 32.6388 14.7275 32.764 14.7275 32.8945C14.7275 33.0251 14.7794 33.1503 14.8717 33.2426C14.964 33.3349 15.0892 33.3867 15.2197 33.3867Z" fill="#002D72"/>
<path d="M11.2173 12.2227H6.8478C6.70975 12.2288 6.5789 12.286 6.48069 12.3832C6.38248 12.4804 6.32393 12.6107 6.31641 12.7486V18.0424C6.31641 18.3142 6.57595 18.5391 6.8478 18.5391H12.1415C12.2724 18.538 12.3976 18.4852 12.4896 18.3921C12.5817 18.2991 12.6332 18.1733 12.6328 18.0424V17.1709C12.6328 17.0404 12.581 16.9152 12.4887 16.8229C12.3964 16.7306 12.2712 16.6788 12.1406 16.6788C12.0101 16.6788 11.8849 16.7306 11.7926 16.8229C11.7003 16.9152 11.6484 17.0404 11.6484 17.1709V17.5547H7.30078V13.207H11.2173C11.3478 13.207 11.473 13.1552 11.5653 13.0629C11.6576 12.9706 11.7095 12.8454 11.7095 12.7148C11.7095 12.5843 11.6576 12.4591 11.5653 12.3668C11.473 12.2745 11.3478 12.2227 11.2173 12.2227Z" fill="#002D72"/>
<path d="M12.9773 13.7799C12.8934 13.6799 12.7732 13.6173 12.6432 13.6059C12.5132 13.5945 12.384 13.6351 12.2839 13.719L10.3194 15.3664L9.64794 14.695C9.55522 14.6048 9.4307 14.5547 9.30132 14.5556C9.17194 14.5565 9.04812 14.6082 8.95664 14.6997C8.86516 14.7912 8.81338 14.9151 8.81251 15.0444C8.81164 15.1738 8.86175 15.2983 8.95199 15.391L9.94211 16.3817C10.0291 16.4687 10.1456 16.5201 10.2687 16.5255C10.3917 16.5309 10.5122 16.49 10.6066 16.4109L12.9171 14.4738C12.9666 14.4322 13.0074 14.3812 13.0373 14.3239C13.0671 14.2665 13.0854 14.2038 13.091 14.1393C13.0966 14.0749 13.0894 14.01 13.0699 13.9483C13.0504 13.8867 13.0189 13.8294 12.9773 13.7799Z" fill="#002D72"/>
<path d="M15.2197 14.6836H22.5565C22.6871 14.6836 22.8122 14.6317 22.9045 14.5394C22.9969 14.4471 23.0487 14.3219 23.0487 14.1914C23.0487 14.0609 22.9969 13.9357 22.9045 13.8434C22.8122 13.7511 22.6871 13.6992 22.5565 13.6992H15.2197C15.0892 13.6992 14.964 13.7511 14.8717 13.8434C14.7794 13.9357 14.7275 14.0609 14.7275 14.1914C14.7275 14.3219 14.7794 14.4471 14.8717 14.5394C14.964 14.6317 15.0892 14.6836 15.2197 14.6836Z" fill="#002D72"/>
<path d="M15.2197 17.0625H26.345C26.4755 17.0625 26.6007 17.0106 26.693 16.9183C26.7853 16.826 26.8372 16.7008 26.8372 16.5703C26.8372 16.4398 26.7853 16.3146 26.693 16.2223C26.6007 16.13 26.4755 16.0781 26.345 16.0781H15.2197C15.0892 16.0781 14.964 16.13 14.8717 16.2223C14.7794 16.3146 14.7275 16.4398 14.7275 16.5703C14.7275 16.7008 14.7794 16.826 14.8717 16.9183C14.964 17.0106 15.0892 17.0625 15.2197 17.0625Z" fill="#002D72"/>
<path d="M35.3519 20.6062L31.7461 24.2074V7.68633C31.7448 7.29975 31.6673 6.91722 31.518 6.56066C31.3686 6.2041 31.1504 5.88052 30.8757 5.60846C30.6011 5.33641 30.2754 5.12123 29.9175 4.97526C29.5595 4.82929 29.1763 4.75539 28.7897 4.75781H27.9727V3.47205C27.9727 2.66708 27.6529 1.89508 27.0837 1.32587C26.5145 0.756673 25.7425 0.436898 24.9375 0.436898C24.1325 0.436898 23.3605 0.756673 22.7913 1.32587C22.2221 1.89508 21.9023 2.66708 21.9023 3.47205V4.75781H11.2383V3.42612C11.2383 2.62114 10.9185 1.84914 10.3493 1.27994C9.7801 0.710735 9.0081 0.390961 8.20312 0.390961C7.39815 0.390961 6.62615 0.710735 6.05695 1.27994C5.48774 1.84914 5.16797 2.62114 5.16797 3.42612V4.75781H4.40344C3.62718 4.75781 2.88272 5.06618 2.33382 5.61507C1.78493 6.16397 1.47656 6.90843 1.47656 7.68469V10.5C1.47656 10.6305 1.52842 10.7557 1.62072 10.848C1.71302 10.9403 1.83821 10.9922 1.96875 10.9922C2.09929 10.9922 2.22448 10.9403 2.31678 10.848C2.40908 10.7557 2.46094 10.6305 2.46094 10.5V7.68633C2.46094 7.17071 2.66577 6.67621 3.03036 6.31161C3.39496 5.94702 3.88946 5.74219 4.40508 5.74219H5.16797V7.34631C5.16926 7.48191 5.22203 7.61195 5.31559 7.7101C5.40915 7.80826 5.53651 7.8672 5.67189 7.875H10.7194C10.8564 7.86781 10.9857 7.80951 11.0817 7.71162C11.1778 7.61374 11.2337 7.48338 11.2383 7.34631V5.74219H21.9023V7.34631C21.9023 7.61816 22.11 7.875 22.3819 7.875H27.5215C27.7933 7.875 27.9727 7.61816 27.9727 7.34631V5.74219H28.7897C29.047 5.73959 29.3024 5.7879 29.541 5.88434C29.7796 5.98078 29.9968 6.12344 30.18 6.30412C30.3633 6.4848 30.5091 6.69994 30.6089 6.93715C30.7087 7.17436 30.7607 7.42897 30.7617 7.68633V25.1897L23.8055 32.1311C23.7543 32.1819 23.7148 32.2433 23.6898 32.311L22.7897 34.7813H15.2202C15.0896 34.7813 14.9644 34.8331 14.8721 34.9254C14.7798 35.0177 14.728 35.1429 14.728 35.2734C14.728 35.404 14.7798 35.5292 14.8721 35.6215C14.9644 35.7138 15.0896 35.7656 15.2202 35.7656H22.4307L21.6056 38.0297C21.5735 38.1177 21.5673 38.2131 21.5875 38.3045C21.6078 38.396 21.6537 38.4797 21.72 38.546C21.7862 38.6122 21.8699 38.6582 21.9614 38.6785C22.0528 38.6988 22.1482 38.6926 22.2362 38.6606L27.9546 36.577C28.0222 36.5523 28.0836 36.5131 28.1344 36.4622L30.7617 33.8297V38.6367C30.7617 39.1589 30.5543 39.6596 30.1851 40.0288C29.8159 40.398 29.3151 40.6055 28.793 40.6055H4.40344C3.88825 40.6055 3.39417 40.4008 3.02988 40.0365C2.66559 39.6722 2.46094 39.1782 2.46094 38.663V13.9453C2.46094 13.8148 2.40908 13.6896 2.31678 13.5973C2.22448 13.505 2.09929 13.4531 1.96875 13.4531C1.83821 13.4531 1.71302 13.505 1.62072 13.5973C1.52842 13.6896 1.47656 13.8148 1.47656 13.9453V38.663C1.47656 39.4392 1.78493 40.1837 2.33382 40.7326C2.88272 41.2815 3.62718 41.5898 4.40344 41.5898H28.7897C29.5731 41.5876 30.3237 41.2753 30.8776 40.7214C31.4316 40.1675 31.7438 39.4168 31.7461 38.6334V32.8435L39.6594 24.9155C40.2308 24.3443 40.5519 23.5695 40.5521 22.7615C40.5522 21.9536 40.2314 21.1787 39.6602 20.6072C39.089 20.0358 38.3142 19.7147 37.5063 19.7145C36.6983 19.7144 35.9234 20.0352 35.3519 20.6064V20.6062ZM10.2539 6.89062H6.15234V3.42612C6.15234 2.88222 6.36841 2.36059 6.753 1.976C7.1376 1.5914 7.65922 1.37534 8.20312 1.37534C8.74703 1.37534 9.26865 1.5914 9.65325 1.976C10.0378 2.36059 10.2539 2.88222 10.2539 3.42612V6.89062ZM26.9883 6.89062H22.8867V3.47205C22.8867 2.92815 23.1028 2.40653 23.4874 2.02193C23.872 1.63734 24.3936 1.42127 24.9375 1.42127C25.4814 1.42127 26.003 1.63734 26.3876 2.02193C26.7722 2.40653 26.9883 2.92815 26.9883 3.47205V6.89062ZM34.0206 23.3244L35.1456 24.4496L25.9818 33.6135L24.8481 32.4798L34.0206 23.3244ZM22.892 37.3734L23.313 36.2183L24.0471 36.9525L22.892 37.3734ZM25.0674 36.5807L23.6848 35.1981L24.3498 33.3732L26.8923 35.9157L25.0674 36.5807ZM27.786 35.4172L26.6778 34.3092L35.8417 25.1456L36.9409 26.2452L27.786 35.4172ZM38.9627 24.22L37.6368 25.5486L34.7172 22.6291L36.0456 21.3035C36.4331 20.9197 36.9567 20.705 37.5021 20.7063C38.0474 20.7076 38.5701 20.9248 38.9557 21.3104C39.3414 21.696 39.5586 22.2187 39.5599 22.7641C39.5612 23.3094 39.3464 23.8331 38.9626 24.2205L38.9627 24.22Z" fill="#002D72"/>
</svg>
