<svg width="44" height="44" viewBox="0 0 44 44" fill="none" xmlns="http://www.w3.org/2000/svg">
<path d="M35.7289 22.9983L42.6298 29.8992C43.1242 30.3942 43.1242 31.1972 42.6298 31.6916C42.1348 32.1866 41.3318 32.1866 40.8368 31.6916L33.9365 24.7914" stroke="#002D72" stroke-width="1.5" stroke-linecap="round" stroke-linejoin="round"/>
<path d="M1 8.44991V5.64722H15.2093" stroke="#002D72" stroke-width="1.5" stroke-linecap="round" stroke-linejoin="round"/>
<path d="M27.6199 40.9293V43H1V11.1968" stroke="#002D72" stroke-width="1.5" stroke-linecap="round" stroke-linejoin="round"/>
<path d="M27.6201 27.6847V38.197" stroke="#002D72" stroke-width="1.5" stroke-linecap="round" stroke-linejoin="round"/>
<path d="M8.81655 40.061H3.74609V26.3708H8.81655V40.061Z" stroke="#002D72" stroke-width="1.5" stroke-linecap="round" stroke-linejoin="round"/>
<path d="M16.7609 24.7514V40.0617H11.6904V21.301H13.8194" stroke="#002D72" stroke-width="1.5" stroke-linecap="round" stroke-linejoin="round"/>
<path d="M24.8732 27.8634V40.061H19.8027V26.6674" stroke="#002D72" stroke-width="1.5" stroke-linecap="round" stroke-linejoin="round"/>
<path d="M13.0611 9.04697H4.76074" stroke="#002D72" stroke-width="1.5" stroke-linecap="round" stroke-linejoin="round"/>
<path d="M12.1833 11.8636H4.76074" stroke="#002D72" stroke-width="1.5" stroke-linecap="round" stroke-linejoin="round"/>
<path d="M11.9386 14.6802H4.76074" stroke="#002D72" stroke-width="1.5" stroke-linecap="round" stroke-linejoin="round"/>
<path d="M4.76074 17.4975H9.49972" stroke="#002D72" stroke-width="1.5" stroke-linecap="round" stroke-linejoin="round"/>
<path d="M36.6102 7.06315C40.039 12.2768 39.4604 19.352 34.8748 23.9376C29.6275 29.1849 21.1199 29.1849 15.872 23.9376C10.6247 18.6903 10.6247 10.1828 15.872 4.93546C21.1193 -0.311822 29.6269 -0.311822 34.8748 4.93546C34.8862 4.94687 34.8982 4.95892 34.9096 4.97032" stroke="#002D72" stroke-width="1.5" stroke-linecap="round" stroke-linejoin="round"/>
<path d="M33.0816 22.1446C28.8313 26.3949 21.9152 26.3949 17.6643 22.1446C13.414 17.8943 13.414 10.9782 17.6643 6.72725C21.9146 2.47694 28.8307 2.47694 33.0816 6.72725C37.332 10.9776 37.332 17.8937 33.0816 22.1446Z" stroke="#002D72" stroke-width="1.5" stroke-linecap="round" stroke-linejoin="round"/>
</svg>
