<?xml version="1.0" encoding="UTF-8"?> <svg xmlns="http://www.w3.org/2000/svg" width="36" height="36" viewBox="0 0 36 36" fill="none"><path fill-rule="evenodd" clip-rule="evenodd" d="M0 18C0 8.05888 8.05888 0 18 0C27.9411 0 36 8.05888 36 18C36 27.9411 27.9411 36 18 36C8.05888 36 0 27.9411 0 18Z" fill="#E40046"></path><path fill-rule="evenodd" clip-rule="evenodd" d="M27.1984 13.5543C26.9776 12.7061 26.327 12.0381 25.5009 11.8114C24.0037 11.3994 17.9997 11.3994 17.9997 11.3994C17.9997 11.3994 11.9956 11.3994 10.4983 11.8114C9.6722 12.0381 9.02159 12.7061 8.80079 13.5543C8.39966 15.0917 8.39966 18.2994 8.39966 18.2994C8.39966 18.2994 8.39966 21.507 8.80079 23.0445C9.02159 23.8928 9.6722 24.5607 10.4983 24.7875C11.9956 25.1994 17.9997 25.1994 17.9997 25.1994C17.9997 25.1994 24.0037 25.1994 25.5009 24.7875C26.327 24.5607 26.9776 23.8928 27.1984 23.0445C27.5997 21.507 27.5997 18.2994 27.5997 18.2994C27.5997 18.2994 27.5997 15.0917 27.1984 13.5543Z" fill="#0C2448"></path><path fill-rule="evenodd" clip-rule="evenodd" d="M16.2014 21.6006V15.6006L21.0014 18.6007L16.2014 21.6006Z" fill="#E40046"></path></svg> 