<svg width="42" height="42" viewBox="0 0 42 42" fill="none" xmlns="http://www.w3.org/2000/svg">
<path d="M21.8099 7.16022C21.8099 7.16022 19.3985 16.4935 11.0283 18.3124L24.3016 18.3651C24.3016 18.3651 28.2918 12.0271 26.5462 7.20134C26.0659 5.87362 24.7012 4.99984 23.3318 5.31414C22.6104 5.47978 21.9633 5.97372 21.8099 7.16022Z" fill="url(#paint0_linear_3097_1978)"/>
<g opacity="0.3">
<path d="M11.8229 18.1117C11.564 18.1859 11.2996 18.2534 11.0283 18.3124L11.3463 18.3136C11.5079 18.2491 11.6666 18.1818 11.8229 18.1117Z" fill="url(#paint1_linear_3097_1978)"/>
<path d="M26.5458 7.20144C26.0655 5.87363 24.7008 4.99994 23.3314 5.31424C22.9651 5.39833 22.6188 5.56851 22.3457 5.86951C23.4712 5.91405 24.4945 6.69691 24.8966 7.80843C26.3164 11.7336 23.9419 16.6583 23.0061 18.3601L24.3012 18.3652C24.3012 18.3651 28.2914 12.0272 26.5458 7.20144Z" fill="url(#paint2_linear_3097_1978)"/>
</g>
<path d="M35.0899 20.9787H35.0521C35.799 20.9618 36.6957 20.6513 37.4265 20.1601C39.3385 18.8749 38.5703 15.7791 36.3656 15.3679C36.1906 15.3353 36.0125 15.3199 35.8347 15.3199C35.8345 15.3199 22.1748 15.3199 22.1748 15.3199C19.3819 15.3199 16.6505 16.0174 14.1354 17.2386C13.2352 17.6757 12.1976 18.0584 11.0283 18.3061V20.4304V27.0057V34.1584L14.8732 35.446C17.4521 36.3097 20.1526 36.75 22.8707 36.75H31.0124C32.3638 36.75 33.5753 35.7344 33.6507 34.3772C33.7309 32.9319 32.5977 31.7362 31.1826 31.7188H33.1199C34.5655 31.7188 35.8616 30.6322 35.9418 29.1803C36.0272 27.634 34.8141 26.3547 33.2999 26.3374H35.2406C36.7591 26.3374 37.9808 25.0592 37.9004 23.514C37.825 22.0651 36.5323 20.9787 35.0899 20.9787Z" fill="url(#paint3_linear_3097_1978)"/>
<path d="M35.993 19.9511H31.7906C30.7277 19.9511 29.8662 19.0894 29.8662 18.0266V18.0152C29.8662 16.9523 30.7278 16.0907 31.7906 16.0907H35.993C37.0558 16.0907 37.9174 16.9523 37.9174 18.0152V18.0266C37.9173 19.0894 37.0558 19.9511 35.993 19.9511Z" fill="url(#paint4_linear_3097_1978)"/>
<path d="M35.5106 25.5273H31.3083C30.2454 25.5273 29.3838 24.6657 29.3838 23.6029V23.5915C29.3838 22.5286 30.2454 21.667 31.3083 21.667H35.5106C36.5735 21.667 37.435 22.5286 37.435 23.5915V23.6029C37.435 24.6657 36.5735 25.5273 35.5106 25.5273Z" fill="url(#paint5_linear_3097_1978)"/>
<path d="M33.5292 30.972H29.3268C28.264 30.972 27.4023 30.1104 27.4023 29.0475V29.0362C27.4023 27.9733 28.264 27.1117 29.3268 27.1117H33.5292C34.592 27.1117 35.4537 27.9733 35.4537 29.0362V29.0475C35.4537 30.1104 34.592 30.972 33.5292 30.972Z" fill="url(#paint6_linear_3097_1978)"/>
<path d="M31.1366 36.2537H26.9342C25.8714 36.2537 25.0098 35.3921 25.0098 34.3292V34.3179C25.0098 33.255 25.8714 32.3935 26.9342 32.3935H31.1366C32.1995 32.3935 33.061 33.2551 33.061 34.3179V34.3292C33.061 35.3922 32.1994 36.2537 31.1366 36.2537Z" fill="url(#paint7_linear_3097_1978)"/>
<path d="M10.0947 16.0781H4.79725C4.07328 16.0781 3.48633 16.6527 3.48633 17.3614V35.4667C3.48633 36.1755 4.07328 36.75 4.79725 36.75H10.0947C10.8187 36.75 11.4056 36.1755 11.4056 35.4667V17.3614C11.4056 16.6527 10.8187 16.0781 10.0947 16.0781Z" fill="url(#paint8_linear_3097_1978)"/>
<path d="M6.12614 22.106C6.85488 22.106 7.44564 21.5117 7.44564 20.7786C7.44564 20.0455 6.85488 19.4513 6.12614 19.4513C5.3974 19.4513 4.80664 20.0455 4.80664 20.7786C4.80664 21.5117 5.3974 22.106 6.12614 22.106Z" fill="url(#paint9_linear_3097_1978)"/>
<path opacity="0.2" d="M35.0901 20.9787H35.0522C35.7991 20.9618 36.696 20.6513 37.4267 20.1601C39.3386 18.8749 38.5704 15.7791 36.3657 15.3679C36.1907 15.3353 36.0127 15.3199 35.8348 15.3199C35.8347 15.3199 33.9997 15.3199 31.6763 15.3199C31.7035 15.7306 31.7384 16.1393 31.7384 16.5569C31.7384 26.7135 23.5533 34.9471 13.4566 34.9471C13.4274 34.9471 13.3993 34.9428 13.3701 34.9427L14.8734 35.4461C17.4523 36.3097 20.1527 36.75 22.8708 36.75H31.0126C32.3639 36.75 33.5754 35.7344 33.6508 34.3772C33.731 32.9319 32.5978 31.7362 31.1828 31.7188H33.12C34.5656 31.7188 35.8617 30.6322 35.9419 29.1803C36.0274 27.634 34.8143 26.3547 33.3 26.3374H35.2407C36.7592 26.3374 37.9809 25.0592 37.9006 23.514C37.8251 22.0651 36.5324 20.9787 35.0901 20.9787Z" fill="url(#paint10_linear_3097_1978)"/>
<path opacity="0.3" d="M10.0946 16.0781H4.79725C4.07328 16.0781 3.48633 16.6527 3.48633 17.3614V17.387H5.12275C5.12275 17.387 9.6479 17.396 9.6479 22.9929V36.75H10.0947C10.8187 36.75 11.4056 36.1755 11.4056 35.4666V17.3614C11.4056 16.6527 10.8187 16.0781 10.0946 16.0781Z" fill="url(#paint11_linear_3097_1978)"/>
<defs>
<linearGradient id="paint0_linear_3097_1978" x1="24.2221" y1="6.17226" x2="17.9247" y2="17.8806" gradientUnits="userSpaceOnUse">
<stop stop-color="#FFDFCF"/>
<stop offset="1" stop-color="#FFA78F"/>
</linearGradient>
<linearGradient id="paint1_linear_3097_1978" x1="11.5424" y1="17.9953" x2="11.3481" y2="18.3566" gradientUnits="userSpaceOnUse">
<stop stop-color="#FFDFCF"/>
<stop offset="1" stop-color="#FFA78F"/>
</linearGradient>
<linearGradient id="paint2_linear_3097_1978" x1="26.1597" y1="6.86876" x2="21.8425" y2="14.8951" gradientUnits="userSpaceOnUse">
<stop stop-color="#FFDFCF"/>
<stop offset="1" stop-color="#FFA78F"/>
</linearGradient>
<linearGradient id="paint3_linear_3097_1978" x1="17.3654" y1="16.3835" x2="31.5623" y2="34.0786" gradientUnits="userSpaceOnUse">
<stop stop-color="#FFDFCF"/>
<stop offset="1" stop-color="#FFA78F"/>
</linearGradient>
<linearGradient id="paint4_linear_3097_1978" x1="34.6099" y1="17.2909" x2="37.5552" y2="14.2949" gradientUnits="userSpaceOnUse">
<stop stop-color="#FFDFCF" stop-opacity="0"/>
<stop offset="1" stop-color="#FFA78F"/>
</linearGradient>
<linearGradient id="paint5_linear_3097_1978" x1="34.1276" y1="22.8673" x2="37.0729" y2="19.8713" gradientUnits="userSpaceOnUse">
<stop stop-color="#FFDFCF" stop-opacity="0"/>
<stop offset="1" stop-color="#FFA78F"/>
</linearGradient>
<linearGradient id="paint6_linear_3097_1978" x1="32.146" y1="28.3115" x2="35.0912" y2="25.3164" gradientUnits="userSpaceOnUse">
<stop stop-color="#FFDFCF" stop-opacity="0"/>
<stop offset="1" stop-color="#FFA78F"/>
</linearGradient>
<linearGradient id="paint7_linear_3097_1978" x1="29.7539" y1="33.593" x2="32.6992" y2="30.5979" gradientUnits="userSpaceOnUse">
<stop stop-color="#FFDFCF" stop-opacity="0"/>
<stop offset="1" stop-color="#FFA78F"/>
</linearGradient>
<linearGradient id="paint8_linear_3097_1978" x1="7.44579" y1="35.784" x2="7.44579" y2="16.8298" gradientUnits="userSpaceOnUse">
<stop stop-color="#197BFF"/>
<stop offset="1" stop-color="#27B2FF"/>
</linearGradient>
<linearGradient id="paint9_linear_3097_1978" x1="6.12614" y1="21.9826" x2="6.12614" y2="19.5475" gradientUnits="userSpaceOnUse">
<stop stop-color="#5F5F60"/>
<stop offset="1" stop-color="#282828"/>
</linearGradient>
<linearGradient id="paint10_linear_3097_1978" x1="23.4065" y1="22.8568" x2="32.93" y2="34.6806" gradientUnits="userSpaceOnUse">
<stop stop-color="#FFDFCF"/>
<stop offset="1" stop-color="#FFA78F"/>
</linearGradient>
<linearGradient id="paint11_linear_3097_1978" x1="7.44579" y1="35.784" x2="7.44579" y2="16.8298" gradientUnits="userSpaceOnUse">
<stop stop-color="#197BFF"/>
<stop offset="1" stop-color="#27B2FF"/>
</linearGradient>
</defs>
</svg>
