<?xml version="1.0" encoding="UTF-8"?> <svg xmlns="http://www.w3.org/2000/svg" version="1.2" viewBox="0 0 36 36" width="36" height="36"><title>icon-linkdin</title><style> .s0 { fill: #e40046 } .s1 { fill: #0c2548 } </style><path fill-rule="evenodd" class="s0" d="m0 18c0-9.9 8.1-18 18-18 9.9 0 18 8.1 18 18 0 9.9-8.1 18-18 18-9.9 0-18-8.1-18-18z"></path><path class="s1" d="m27 16.2q-0.7 0-1.3-0.1-0.7-0.1-1.3-0.3-0.6-0.2-1.2-0.5-0.6-0.3-1.1-0.6v6.9c0 2.7-1.7 5.1-4.3 6-2.5 0.9-5.4 0.2-7.2-1.8-1.8-2-2.1-4.8-0.8-7.2 1.3-2.3 3.9-3.6 6.6-3.2v3.5c-1.2-0.4-2.5 0-3.3 1-0.8 1.1-0.8 2.5 0 3.5 0.8 1 2.1 1.4 3.4 1 1.2-0.4 2-1.5 2-2.8v-13.6h3.6q0 0.1 0 0.2 0 0.1 0 0.2 0 0.1 0 0.3 0 0.1 0 0.2 0.1 0.4 0.3 0.9 0.2 0.4 0.5 0.9 0.3 0.4 0.6 0.7 0.4 0.3 0.8 0.6 0.3 0.2 0.6 0.3 0.4 0.2 0.7 0.3 0.3 0.1 0.7 0.1 0.3 0.1 0.7 0.1z"></path></svg> 