<?xml version="1.0" encoding="UTF-8"?> <svg xmlns="http://www.w3.org/2000/svg" fill="none" viewBox="0 0 127 47"><path fill="#002D72" d="M31.08 43.77c-2.03-2-3.04-4.86-3.04-8.58 0-3.71 1-6.57 2.99-8.57 1.99-2 4.83-3 8.53-3 1.47 0 2.84.15 4.1.46 1.26.3 2.33.73 3.2 1.3.2.13.3.27.3.43 0 .12-.06.28-.17.45l-.91 1.56c-.14.2-.25.3-.36.3-.09 0-.24-.06-.46-.17a10.04 10.04 0 0 0-5.25-1.23c-2.46 0-4.38.7-5.77 2.11-1.4 1.42-2.09 3.54-2.09 6.36 0 2.83.72 5 2.16 6.4 1.43 1.41 3.36 2.11 5.8 2.11 2.26 0 4.12-.42 5.58-1.27.21-.1.35-.16.42-.16.13 0 .26.1.4.3l1 1.69c.07.13.1.24.1.33 0 .12-.12.27-.36.42-1.67 1.17-4.2 1.76-7.6 1.76-3.69 0-6.55-1-8.57-3M50.54 44.83c-1.26-1.3-1.89-3.12-1.89-5.46 0-1.83.4-3.44 1.2-4.84a8.15 8.15 0 0 1 3.45-3.25 11.3 11.3 0 0 1 5.2-1.14c2.76 0 5.1.65 7.01 1.96v13.3c0 .33-.07.56-.21.69-.14.12-.39.2-.74.2h-1.79c-.24 0-.42-.06-.54-.15a.79.79 0 0 1-.24-.48l-.26-1.27a5.89 5.89 0 0 1-2.5 1.81c-.99.38-2.19.57-3.6.57a6.77 6.77 0 0 1-5.09-1.94m9.7-2.04a3.2 3.2 0 0 0 1.33-2.67v-6.36a5.4 5.4 0 0 0-1.39-.5 8.58 8.58 0 0 0-1.71-.16c-1.72 0-3.1.55-4.14 1.63-1.05 1.1-1.57 2.6-1.57 4.5 0 1.57.37 2.72 1.1 3.46.72.74 1.84 1.1 3.34 1.1 1.15 0 2.16-.33 3.04-1M69.65 45.99c-.2-.2-.3-.5-.3-.88V31.5c0-.33.06-.56.17-.69.1-.13.33-.2.68-.2h1.86c.24 0 .4.06.52.16.1.1.17.26.2.5l.09 1.18a6.25 6.25 0 0 1 5.05-2.32c.96 0 1.69.16 2.19.49.13.09.21.18.24.28.03.1.03.21-.01.34l-.6 1.96c-.06.21-.18.32-.35.32l-.26-.06a4.26 4.26 0 0 0-1.8-.36c-1.1 0-2.02.31-2.73.93a3.17 3.17 0 0 0-1.08 2.53v8.54c0 .4-.09.68-.28.88-.18.2-.5.3-.96.3h-1.7c-.43 0-.74-.1-.94-.3M81.29 38.42c0-1.63.31-3.07.94-4.32a6.92 6.92 0 0 1 2.72-2.92 8.14 8.14 0 0 1 4.2-1.04c2.28 0 3.93.51 4.95 1.54v-6.36c0-.41.1-.72.3-.91.2-.2.5-.3.94-.3h1.63c.43 0 .75.1.94.3.2.2.3.5.3.9v19.34c-.83.61-1.94 1.12-3.33 1.52-1.4.4-2.84.6-4.34.6-6.17 0-9.26-2.78-9.26-8.34m12.82 4.6v-6.66c0-1.07-.37-1.87-1.11-2.41a4.73 4.73 0 0 0-2.87-.82c-1.59 0-2.77.48-3.56 1.44a6.07 6.07 0 0 0-1.17 3.94c0 1.87.43 3.22 1.3 4.04.88.83 2.19 1.24 3.95 1.24 1.46 0 2.61-.26 3.46-.78M102.48 27.47c-.28-.3-.42-.68-.42-1.11v-.69c0-.43.14-.8.42-1.1.28-.31.68-.46 1.2-.46h1.4c.53 0 .94.15 1.23.45.3.3.44.68.44 1.11v.69c0 .43-.14.8-.44 1.1-.3.31-.7.46-1.22.46h-1.4c-.53 0-.93-.15-1.21-.45Zm.13 18.52c-.2-.2-.3-.5-.3-.88V31.83c0-.4.1-.72.3-.9.2-.2.51-.3.95-.3h1.7c.43 0 .74.1.94.3.2.19.3.5.3.9v13.28c0 .39-.1.68-.29.88-.18.2-.5.29-.96.29h-1.7c-.43 0-.74-.1-.94-.3ZM111.6 44.53c-1.54-1.48-2.3-3.51-2.3-6.08 0-2.56.76-4.59 2.3-6.08 1.53-1.48 3.7-2.23 6.53-2.23s5.01.75 6.55 2.23c1.55 1.5 2.32 3.52 2.32 6.08 0 2.57-.77 4.6-2.32 6.08-1.54 1.5-3.73 2.24-6.55 2.24s-5-.74-6.54-2.24Zm10.05-2.16c.8-.9 1.2-2.2 1.2-3.92 0-1.71-.4-2.98-1.2-3.86-.8-.88-1.98-1.32-3.52-1.32s-2.69.44-3.5 1.32c-.82.88-1.23 2.17-1.23 3.86 0 1.7.4 3 1.22 3.9.82.9 1.99 1.35 3.51 1.35 1.53 0 2.72-.44 3.52-1.33"></path><path fill="#E40046" d="M24.34 0a6.98 6.98 0 0 0-5.77 2.78A6.96 6.96 0 0 0 6.23 5.43c-1.12 3.73.56 8.23 3.98 11.06 5.45 4.49 11.34 4.58 15.3 4.46a.47.47 0 0 0 .44-.47c0-.17-.08-.31-.21-.4-.38-.27-1.35-1.11-1.31-2.3.05-1.49.87-2.22 1.18-2.54.77-.78 1.97-1.87 3.17-3.07a7.29 7.29 0 0 0 2.33-5.22A6.97 6.97 0 0 0 24.34.01Z"></path><path fill="#002D72" d="M9.88 44.77C8.62 43.48 8 41.66 8 39.31c0-1.82.4-3.44 1.2-4.84a8.15 8.15 0 0 1 3.45-3.24 11.27 11.27 0 0 1 5.2-1.15c2.76 0 5.1.66 7.01 1.96v13.3c0 .33-.07.56-.21.69-.14.13-.39.2-.74.2h-1.79c-.24 0-.42-.05-.54-.15a.79.79 0 0 1-.24-.47l-.26-1.27a5.89 5.89 0 0 1-2.5 1.8c-.99.38-2.19.58-3.6.58a6.77 6.77 0 0 1-5.09-1.95m9.7-2.03a3.2 3.2 0 0 0 1.32-2.68V33.7a5.4 5.4 0 0 0-1.38-.5 8.6 8.6 0 0 0-1.71-.15c-1.72 0-3.1.54-4.15 1.63-1.04 1.09-1.56 2.59-1.56 4.5 0 1.56.36 2.72 1.1 3.46.72.73 1.83 1.1 3.33 1.1 1.16 0 2.17-.33 3.05-1M5.82 43.2c-.19-.05-.35-.1-.5-.16-.3-.13-.53-.3-.7-.51-.15-.21-.26-.47-.32-.77a5.6 5.6 0 0 1-.08-1.02L4.2 25.46V25.3l-.02-.1a1.1 1.1 0 0 0-.28-.67c-.2-.2-.51-.3-.95-.3H1.25c-.44 0-.76.1-.95.3-.16.16-.25.39-.29.69L0 25.3v13.42l.01.18v2.7a9 9 0 0 0 .25 2.14c.16.64.46 1.18.9 1.62.44.45 1.05.8 1.8 1.04.62.2 1.69.32 2.6.37.39.02.73-.25.8-.63l.05-2.1a.75.75 0 0 0-.6-.85"></path></svg> 